<?xml version="1.0" encoding="UTF-8" standalone="no"?>
<svg
   width="498.17953"
   zoomAndPan="magnify"
   viewBox="0 0 373.63465 151.37109"
   height="201.82812"
   preserveAspectRatio="xMidYMid"
   version="1.0"
   id="svg3182"
   sodipodi:docname="TIPNNV Heart with Pulse Left Long Logo.svg"
   inkscape:version="1.2.1 (9c6d41e410, 2022-07-14)"
   xmlns:inkscape="http://www.inkscape.org/namespaces/inkscape"
   xmlns:sodipodi="http://sodipodi.sourceforge.net/DTD/sodipodi-0.dtd"
   xmlns="http://www.w3.org/2000/svg"
   xmlns:svg="http://www.w3.org/2000/svg">
  <sodipodi:namedview
     id="namedview3184"
     pagecolor="#ffffff"
     bordercolor="#000000"
     borderopacity="0.25"
     inkscape:showpageshadow="2"
     inkscape:pageopacity="0.0"
     inkscape:pagecheckerboard="0"
     inkscape:deskcolor="#d1d1d1"
     showgrid="false"
     inkscape:zoom="1.57"
     inkscape:cx="248.40764"
     inkscape:cy="100.95541"
     inkscape:window-width="1920"
     inkscape:window-height="1001"
     inkscape:window-x="-9"
     inkscape:window-y="-9"
     inkscape:window-maximized="1"
     inkscape:current-layer="svg3182" />
  <defs
     id="defs3012">
    <g
       id="g3007" />
    <clipPath
       id="40e8ea08ab">
      <path
         d="M 0.195312,111.79688 H 374.79687 V 263.16797 H 0.195312 Z m 0,0"
         clip-rule="nonzero"
         id="path3009" />
    </clipPath>
  </defs>
  <g
     clip-path="url(#40e8ea08ab)"
     id="g3016"
     transform="translate(-0.91613513,-111.79688)">
    <path
       fill="#ab1404"
       d="m 0.957031,135.91797 c -0.054687,-6.02735 3.347657,-11.64453 3.476563,-11.84766 4.40625,-7.57422 12.574218,-12.27343 21.316406,-12.27343 9.460938,0 17.976562,5.39062 22.09375,13.69531 4.113281,-8.30469 12.636719,-13.69922 22.089844,-13.69922 8.75,0 16.914062,4.70312 21.304687,12.24609 0.144531,0.23438 3.550781,5.84766 3.496094,11.875 0.06641,1.10547 0.339844,7.89063 -2.429687,13.70313 -1.4375,3.73047 -3.503907,7.42968 -6.136719,10.99218 -7.082031,11.00782 -19.75,21.21094 -30.550781,28.73438 3.84375,-3.38672 10.523437,-10.23047 15.132812,-15.59766 3.484375,-3.6289 6.160156,-7.40625 8.585938,-10.57812 0.886718,-1.25 1.738281,-2.4961 2.386718,-3.44531 l 1.039063,-1.8125 c 2.636719,-4.67188 3.222656,-6.1875 4.496093,-9.50391 l 0.136719,-0.33203 c 2.324219,-4.84375 2.027344,-10.78906 1.992188,-11.34375 l -0.0078,-0.10938 v -0.17968 c 0.05078,-4.59766 -2.683594,-9.21875 -2.796875,-9.41407 l -0.03516,-0.0586 C 84.820312,124 82.34375,121.51563 79.390625,119.77734 c -3.042969,-1.78906 -6.53125,-2.73437 -10.078125,-2.73437 -8.53125,0 -16.109375,5.41797 -18.867188,13.48828 l -2.601562,7.61328 -2.601562,-7.61328 c -2.757813,-8.06641 -10.335938,-13.48437 -18.863282,-13.48437 -3.550781,0 -7.035156,0.94531 -10.078125,2.73437 -2.957031,1.73828 -5.433593,4.22266 -7.179687,7.22656 l -0.035156,0.0508 c -0.261719,0.44922 -2.824219,4.9336 -2.777344,9.38282 l 0.00391,0.17187 -0.015625,0.10938 c -0.03125,0.52343 -0.339844,6.48046 2,11.35156 l 0.085937,0.20703 c 1.277344,3.32031 3.121094,6.625 5.496094,9.82812 l 1.953125,2.63282 -0.125,0.0625 c 8.675781,12.26172 22.082031,24.51953 26.070313,28.05859 2.523437,2.14453 4.765625,3.73438 6.066406,4.77344 l 133.253906,0.29297 6.94921,14.26953 6.64844,-23.16797 c 0.32422,-1.13281 1.29297,-1.92188 2.46875,-2.01953 1.17578,-0.0898 2.25781,0.53906 2.75391,1.60937 l 6.1289,13.13672 c 0.0586,0.1211 0.1836,0.20703 0.32032,0.20703 h 10.41406 c 0.15625,0 0.29687,-0.10937 0.33984,-0.25781 l 6.84766,-23.27734 c 0.35547,-1.21485 1.48047,-2.04297 2.75,-2.01172 1.26562,0.0352 2.35547,0.91406 2.65234,2.14453 l 18.08203,75 13.88282,-114.33203 c 0.16406,-1.35156 1.26562,-2.38672 2.62109,-2.46094 1.35547,-0.0703 2.56641,0.83203 2.87891,2.15234 l 15.22265,64.60157 c 0.0352,0.16406 0.17969,0.27734 0.34766,0.27734 h 10.53516 c 0.14062,0 0.26953,-0.082 0.32812,-0.21094 l 5.33984,-11.7539 c 0.48438,-1.07032 1.59766,-1.73047 2.76954,-1.62891 1.17187,0.0898 2.16796,0.91797 2.47656,2.05078 l 5.80469,21.28906 5.16796,-11.7539 18.00782,0.46875 h 41.71484 v 4.72656 h -41.74609 l -14.92578,-0.39062 -6.08594,13.84375 c -0.48047,1.08203 -1.58985,1.74609 -2.76953,1.66015 -1.17969,-0.0859 -2.17969,-0.91406 -2.49219,-2.05469 l -5.83203,-21.38671 -3.12891,6.88671 c -0.82422,1.8125 -2.64062,2.98047 -4.6289,2.98047 h -10.53516 c -2.37109,0 -4.40234,-1.60937 -4.94922,-3.91797 l -12.73828,-54.05468 -13.85938,114.17578 c -0.16406,1.34765 -1.26562,2.3789 -2.61718,2.45703 -0.0547,0.004 -0.10938,0.008 -0.16407,0.008 -1.28515,0 -2.41406,-0.8789 -2.71875,-2.14453 l -18.89453,-78.36719 -4.80859,16.35938 c -0.62891,2.14844 -2.63672,3.64844 -4.875,3.64844 h -10.41406 c -1.96094,0 -3.76953,-1.15235 -4.60157,-2.9375 l -3.94921,-8.46094 -6.60938,23.04297 c -0.32422,1.12109 -1.28516,1.91015 -2.44922,2.01562 -1.16406,0.10156 -2.24219,-0.51172 -2.7539,-1.5625 l -7.84766,-16.11328 -130.273434,-0.3125 c -0.824218,0 -1.671874,-0.54297 -2.3125,-1.05078 -5.984378,-4.76584 -26.242191,-21.47677 -36.03516,-36.6799 -2.644531,-3.57422 -4.710937,-7.27344 -6.152344,-11.01172 -2.765624,-5.8125 -2.496093,-12.60156 -2.425781,-13.70312"
       fill-opacity="1"
       fill-rule="nonzero"
       id="path3014" />
  </g>
  <g
     fill="#ab1404"
     fill-opacity="1"
     id="g3024"
     transform="translate(-0.91613513,-111.79688)">
    <g
       transform="translate(16.231109,167.07521)"
       id="g3022">
      <g
         id="g3020">
        <path
           d="m 30.09375,-31.300781 -0.277344,-0.230469 c -4.769531,0.09375 -9.582031,0.140625 -14.351562,0.140625 -4.816406,0 -9.585938,-0.04687 -14.398438,-0.140625 l -0.277344,0.230469 c 0.367188,2.222656 0.460938,3.84375 0.601563,7.363281 h 1.851563 l 0.230468,-3.195312 c 0.140625,-1.851563 1.851563,-1.527344 3.289063,-1.527344 h 5.414062 V -6.25 c 0,4.121094 -0.04687,4.210938 -2.222656,4.398438 L 8.242188,-1.714844 V 0.140625 C 10.648438,0.046875 13.011719,0 15.417969,0 c 2.40625,0 4.816406,0.046875 7.222656,0.140625 V -1.714844 L 20.929688,-1.851562 C 18.75,-2.039062 18.707031,-2.128906 18.707031,-6.25 v -22.410156 h 5.414063 c 2.269531,0 2.59375,-0.324219 3.289062,1.527344 l 0.230469,3.195312 h 1.851563 c 0.09375,-3.519531 0.234374,-5.140625 0.601562,-7.363281 z m 0,0"
           id="path3018" />
      </g>
    </g>
  </g>
  <g
     fill="#ab1404"
     fill-opacity="1"
     id="g3032"
     transform="translate(-0.91613513,-111.79688)">
    <g
       transform="translate(38.108154,178.23989)"
       id="g3030">
      <g
         id="g3028">
        <path
           d="M 16.207031,0.140625 V -1.714844 L 14.492188,-1.851562 C 12.316406,-2.039062 12.269531,-2.128906 12.269531,-6.25 v -18.890625 c 0,-4.121094 0.04687,-4.214844 2.222657,-4.398437 l 1.714843,-0.140626 v -1.851562 c -2.410156,0.09375 -4.816406,0.140625 -7.226562,0.140625 -2.40625,0 -4.765625,-0.04687 -7.175781,-0.140625 v 1.851562 l 1.714843,0.140626 c 2.175781,0.183593 2.222657,0.277343 2.222657,4.398437 V -6.25 c 0,4.121094 -0.046876,4.210938 -2.222657,4.398438 L 1.804688,-1.714844 V 0.140625 C 4.214844,0.046875 6.574219,0 8.980469,0 c 2.410156,0 4.816406,0.046875 7.226562,0.140625 z m 0,0"
           id="path3026" />
      </g>
    </g>
  </g>
  <g
     fill="#ab1404"
     fill-opacity="1"
     id="g3040"
     transform="translate(-0.91613513,-111.79688)">
    <g
       transform="translate(52.652444,171.73118)"
       id="g3038">
      <g
         id="g3036">
        <path
           d="m 27.503906,-24.585938 c 0,-4.628906 -4.816406,-6.945312 -8.753906,-6.945312 -2.960938,0 -5.972656,0.140625 -8.933594,0.140625 -2.6875,0 -5.324218,-0.04687 -8.011718,-0.140625 v 1.714844 l 1.714843,0.136718 c 2.082031,0.1875 2.222657,0.464844 2.222657,4.539063 V -6.25 c 0,4.121094 -0.046876,4.210938 -2.222657,4.398438 L 1.804688,-1.714844 V 0.140625 C 4.214844,0.046875 6.621094,0 9.027344,0 c 2.546875,0 5.09375,0.046875 7.640625,0.140625 V -1.714844 L 14.492188,-1.851562 C 12.363281,-1.992188 12.269531,-2.175781 12.269531,-6.25 v -22.550781 c 0.695313,-0.277344 1.527344,-0.414063 2.777344,-0.414063 3.84375,0 5.789063,2.082032 5.789063,6.203125 0,3.703125 -1.851563,6.113281 -4.769532,6.113281 h -1.667968 v 1.804688 c 0.878906,0.136719 1.761718,0.324219 2.6875,0.324219 5.972656,0 10.417968,-4.214844 10.417968,-9.816407 z m 0,0"
           id="path3034" />
      </g>
    </g>
  </g>
  <g
     fill="#ab1404"
     fill-opacity="1"
     id="g3048"
     transform="translate(-0.91613513,-111.79688)">
    <g
       transform="translate(61.287773,192.81975)"
       id="g3046">
      <g
         id="g3044">
        <path
           d="m 6.929688,-3.164062 c 0,-2.035157 -1.101563,-3.148438 -3.082032,-3.148438 -2.132812,0 -3.3125,1.179688 -3.3125,3.3125 0,2.0625 1.101563,3.226562 3.042969,3.226562 2.144531,0 3.351563,-1.21875 3.351563,-3.390624 z m -1.824219,0.417968 c 0,1.632813 -0.375,2.332032 -1.285157,2.332032 -0.964843,0 -1.460937,-0.980469 -1.460937,-2.910157 0,-1.621093 0.402344,-2.34375 1.324219,-2.34375 0.964844,0 1.421875,0.949219 1.421875,2.921875 z m 0,0"
           id="path3042" />
      </g>
    </g>
  </g>
  <g
     fill="#ab1404"
     fill-opacity="1"
     id="g3056"
     transform="translate(-0.91613513,-111.79688)">
    <g
       transform="translate(68.736773,192.81975)"
       id="g3054">
      <g
         id="g3052">
        <path
           d="m 5.105469,-8.269531 v -1.296875 c -0.226563,-0.054688 -0.363281,-0.082032 -0.5625,-0.082032 -0.429688,0 -0.738281,0.132813 -1.246094,0.5625 L 2.304688,-8.253906 C 1.660156,-7.71875 1.566406,-7.492188 1.566406,-6.417969 V -5.84375 C 1.21875,-5.601562 0.953125,-5.453125 0.507812,-5.238281 v 0.320312 l 1.058594,-0.066406 v 3.644531 c 0,0.738282 -0.066406,0.832032 -0.5625,0.855469 L 0.457031,-0.457031 V 0.0390625 C 1.085938,0.0117188 1.703125,0 2.332031,0 3.042969,0 3.765625,0.0117188 4.476562,0.0390625 V -0.457031 L 3.871094,-0.484375 C 3.523438,-0.496094 3.285156,-0.589844 3.242188,-0.722656 3.214844,-0.84375 3.203125,-1.019531 3.203125,-1.339844 V -4.984375 H 4.863281 L 5.011719,-5.761719 4.957031,-5.871094 c -0.589843,0.042969 -1.164062,0.054688 -1.753906,0.054688 v -1.445313 c 0,-0.953125 0.175781,-1.234375 0.789063,-1.234375 0.28125,0 0.484374,0.066406 0.898437,0.320313 z m 0,0"
           id="path3050" />
      </g>
    </g>
  </g>
  <g
     fill="#ab1404"
     fill-opacity="1"
     id="g3062"
     transform="translate(-0.91613513,-111.79688)">
    <g
       transform="translate(73.948395,192.81975)"
       id="g3060">
      <g
         id="g3058" />
    </g>
  </g>
  <g
     fill="#ab1404"
     fill-opacity="1"
     id="g3070"
     transform="translate(-0.91613513,-111.79688)">
    <g
       transform="translate(77.297768,192.81975)"
       id="g3068">
      <g
         id="g3066">
        <path
           d="M 10.695312,-8.628906 V -9.125 C 10.183594,-9.097656 9.675781,-9.085938 9.167969,-9.085938 8.65625,-9.085938 8.132812,-9.097656 7.625,-9.125 v 0.496094 l 0.496094,0.039062 c 0.601562,0.054688 0.644531,0.132813 0.644531,1.3125 v 4.8125 L 4.582031,-7.34375 C 4.300781,-7.664062 4.058594,-7.988281 3.203125,-9.125 c -0.375,0.027344 -0.75,0.039062 -1.125,0.039062 -0.535156,0 -1.074219,-0.011718 -1.609375,-0.039062 v 0.496094 l 0.496094,0.039062 c 0.601562,0.054688 0.644531,0.132813 0.644531,1.3125 v 5.46875 c 0,1.179688 -0.042969,1.257813 -0.644531,1.3125 L 0.46875,-0.457031 V 0.0390625 C 0.976562,0.0117188 1.5,0 2.011719,0 2.519531,0 3.027344,0.0117188 3.539062,0.0390625 V -0.457031 L 3.042969,-0.496094 C 2.4375,-0.550781 2.398438,-0.617188 2.398438,-1.808594 v -5.265625 l 4.367187,5.25 L 8.402344,0.0390625 9.5,0.214844 9.59375,0.160156 9.554688,-1.191406 v -6.085938 c 0,-1.179687 0.039062,-1.257812 0.644531,-1.3125 z m 0,0"
           id="path3064" />
      </g>
    </g>
  </g>
  <g
     fill="#ab1404"
     fill-opacity="1"
     id="g3078"
     transform="translate(-0.91613513,-111.79688)">
    <g
       transform="translate(88.457873,192.81975)"
       id="g3076">
      <g
         id="g3074">
        <path
           d="m 6.929688,-3.164062 c 0,-2.035157 -1.101563,-3.148438 -3.082032,-3.148438 -2.132812,0 -3.3125,1.179688 -3.3125,3.3125 0,2.0625 1.101563,3.226562 3.042969,3.226562 2.144531,0 3.351563,-1.21875 3.351563,-3.390624 z m -1.824219,0.417968 c 0,1.632813 -0.375,2.332032 -1.285157,2.332032 -0.964843,0 -1.460937,-0.980469 -1.460937,-2.910157 0,-1.621093 0.402344,-2.34375 1.324219,-2.34375 0.964844,0 1.421875,0.949219 1.421875,2.921875 z m 0,0"
           id="path3072" />
      </g>
    </g>
  </g>
  <g
     fill="#ab1404"
     fill-opacity="1"
     id="g3086"
     transform="translate(-0.91613513,-111.79688)">
    <g
       transform="translate(95.906873,192.81975)"
       id="g3084">
      <g
         id="g3082">
        <path
           d="M 5.214844,-6.230469 C 5.078125,-6.285156 4.90625,-6.3125 4.71875,-6.3125 c -0.375,0 -0.632812,0.160156 -1.140625,0.710938 L 2.988281,-4.957031 V -6.230469 L 2.855469,-6.3125 l -0.9375,0.296875 c -0.429688,0.132813 -0.671875,0.171875 -1.515625,0.28125 v 0.480469 l 0.601562,0.039062 C 1.3125,-5.1875 1.351562,-5.066406 1.351562,-4.273438 v 2.933594 c 0,0.722656 -0.066406,0.832032 -0.480468,0.855469 l -0.46875,0.027344 V 0.0390625 C 0.976562,0.0117188 1.554688,0 2.128906,0 2.800781,0 3.484375,0.0117188 4.152344,0.0390625 V -0.457031 L 3.632812,-0.484375 C 3.054688,-0.507812 2.988281,-0.589844 2.988281,-1.339844 v -2.652344 c 0,-0.417968 0.550781,-0.859374 1.070313,-0.859374 0.335937,0 0.578125,0.160156 0.765625,0.484374 l 0.320312,-0.136718 z m 0,0"
           id="path3080" />
      </g>
    </g>
  </g>
  <g
     fill="#ab1404"
     fill-opacity="1"
     id="g3094"
     transform="translate(-0.91613513,-111.79688)">
    <g
       transform="translate(101.11849,192.81975)"
       id="g3092">
      <g
         id="g3090">
        <path
           d="M 4.34375,-0.804688 4.234375,-1.058594 c -0.28125,0.132813 -0.402344,0.175782 -0.617187,0.175782 -0.628907,0 -0.828126,-0.214844 -0.828126,-0.871094 v -3.191406 h 1.417969 l 0.109375,-0.871094 c -0.511718,0.054687 -1.019531,0.082031 -1.527344,0.082031 v -0.777344 c 0,-0.710937 0.039063,-1.152343 0.160157,-1.824219 L 2.761719,-8.46875 C 2.222656,-8.214844 1.808594,-8.054688 1.125,-7.800781 c 0.039062,0.710937 0.054688,0.953125 0.054688,1.234375 v 0.804687 L 0.292969,-5.1875 v 0.296875 l 0.859375,-0.054687 v 3.472656 c 0,1.191406 0.496094,1.699218 1.660156,1.699218 0.417969,0 0.753906,-0.09375 0.871094,-0.2382808 z m 0,0"
           id="path3088" />
      </g>
    </g>
  </g>
  <g
     fill="#ab1404"
     fill-opacity="1"
     id="g3102"
     transform="translate(-0.91613513,-111.79688)">
    <g
       transform="translate(105.57986,192.81975)"
       id="g3100">
      <g
         id="g3098">
        <path
           d="M 7.867188,0.0390625 V -0.457031 L 7.425781,-0.484375 C 7.007812,-0.507812 6.941406,-0.617188 6.941406,-1.339844 V -3.832031 C 6.941406,-4.863281 6.820312,-5.375 6.472656,-5.75 6.125,-6.109375 5.574219,-6.3125 4.917969,-6.3125 c -0.402344,0 -0.722657,0.082031 -0.9375,0.253906 L 2.90625,-5.226562 V -9.566406 L 2.800781,-9.648438 1.835938,-9.355469 c -0.347657,0.109375 -0.789063,0.1875 -1.515626,0.28125 v 0.484375 l 0.605469,0.039063 c 0.308594,0.027343 0.347657,0.148437 0.347657,0.9375 v 6.273437 c 0,0.722656 -0.066407,0.832032 -0.484376,0.855469 l -0.46875,0.027344 V 0.0390625 C 0.898438,0.0117188 1.472656,0 2.050781,0 2.652344,0 3.257812,0.0117188 3.859375,0.0390625 V -0.457031 L 3.390625,-0.484375 C 2.976562,-0.507812 2.90625,-0.617188 2.90625,-1.339844 V -4.25 c 0,-0.46875 0.550781,-0.910156 1.140625,-0.910156 0.882813,0 1.261719,0.46875 1.261719,1.554687 V 0.0390625 C 5.707031,0.0117188 6.109375,0 6.511719,0 6.96875,0 7.410156,0.0117188 7.867188,0.0390625 Z m 0,0"
           id="path3096" />
      </g>
    </g>
  </g>
  <g
     fill="#ab1404"
     fill-opacity="1"
     id="g3110"
     transform="translate(-0.91613513,-111.79688)">
    <g
       transform="translate(113.76572,192.81975)"
       id="g3108">
      <g
         id="g3106">
        <path
           d="m 6.179688,-3.257812 v -0.695313 c 0,-1.433594 -0.992188,-2.359375 -2.546876,-2.359375 -0.457031,0 -0.804687,0.09375 -1.167968,0.308594 l -0.628906,0.375 c -0.882813,0.523437 -1.273438,1.3125 -1.273438,2.601562 0,2.128906 1.058594,3.253906 3.070312,3.253906 0.777344,0 1.246094,-0.132812 2.117188,-0.574218 L 6.042969,-0.992188 5.882812,-1.191406 c -0.628906,0.347656 -1.03125,0.46875 -1.582031,0.46875 -0.667969,0 -1.324219,-0.363282 -1.660156,-0.925782 -0.226563,-0.375 -0.308594,-0.695312 -0.335937,-1.339843 h 1.753906 c 0.765625,0 1.355468,-0.082031 2.121094,-0.269531 z M 4.476562,-3.699219 c 0,0 -0.683593,0.039063 -1.125,0.039063 -0.269531,0 0.066407,0 -0.699218,-0.023438 L 2.222656,-3.699219 c 0,-1.324219 0.363282,-1.863281 1.140625,-1.863281 0.765625,0 1.113281,0.539062 1.113281,1.863281 z m 0,0"
           id="path3104" />
      </g>
    </g>
  </g>
  <g
     fill="#ab1404"
     fill-opacity="1"
     id="g3118"
     transform="translate(-0.91613513,-111.79688)">
    <g
       transform="translate(120.46445,192.81975)"
       id="g3116">
      <g
         id="g3114">
        <path
           d="M 5.214844,-6.230469 C 5.078125,-6.285156 4.90625,-6.3125 4.71875,-6.3125 c -0.375,0 -0.632812,0.160156 -1.140625,0.710938 L 2.988281,-4.957031 V -6.230469 L 2.855469,-6.3125 l -0.9375,0.296875 c -0.429688,0.132813 -0.671875,0.171875 -1.515625,0.28125 v 0.480469 l 0.601562,0.039062 C 1.3125,-5.1875 1.351562,-5.066406 1.351562,-4.273438 v 2.933594 c 0,0.722656 -0.066406,0.832032 -0.480468,0.855469 l -0.46875,0.027344 V 0.0390625 C 0.976562,0.0117188 1.554688,0 2.128906,0 2.800781,0 3.484375,0.0117188 4.152344,0.0390625 V -0.457031 L 3.632812,-0.484375 C 3.054688,-0.507812 2.988281,-0.589844 2.988281,-1.339844 v -2.652344 c 0,-0.417968 0.550781,-0.859374 1.070313,-0.859374 0.335937,0 0.578125,0.160156 0.765625,0.484374 l 0.320312,-0.136718 z m 0,0"
           id="path3112" />
      </g>
    </g>
  </g>
  <g
     fill="#ab1404"
     fill-opacity="1"
     id="g3126"
     transform="translate(-0.91613513,-111.79688)">
    <g
       transform="translate(125.67608,192.81975)"
       id="g3124">
      <g
         id="g3122">
        <path
           d="M 7.867188,0.0390625 V -0.457031 L 7.425781,-0.484375 C 7.007812,-0.507812 6.941406,-0.617188 6.941406,-1.339844 V -3.832031 C 6.941406,-4.863281 6.820312,-5.375 6.472656,-5.75 6.125,-6.109375 5.574219,-6.3125 4.917969,-6.3125 c -0.402344,0 -0.722657,0.082031 -0.9375,0.253906 L 2.90625,-5.226562 V -6.230469 L 2.828125,-6.3125 c -1.394531,0.457031 -1.769531,0.535156 -2.507813,0.578125 v 0.480469 l 0.605469,0.039062 c 0.308594,0.027344 0.347657,0.148438 0.347657,0.941406 v 2.933594 c 0,0.722656 -0.066407,0.832032 -0.484376,0.855469 l -0.46875,0.027344 V 0.0390625 C 0.898438,0.0117188 1.472656,0 2.050781,0 2.652344,0 3.257812,0.0117188 3.859375,0.0390625 V -0.457031 L 3.390625,-0.484375 C 2.976562,-0.507812 2.90625,-0.617188 2.90625,-1.339844 V -4.25 c 0,-0.46875 0.550781,-0.910156 1.140625,-0.910156 0.882813,0 1.261719,0.46875 1.261719,1.542968 V 0.0390625 C 5.707031,0.0117188 6.109375,0 6.511719,0 6.96875,0 7.410156,0.0117188 7.867188,0.0390625 Z m 0,0"
           id="path3120" />
      </g>
    </g>
  </g>
  <g
     fill="#ab1404"
     fill-opacity="1"
     id="g3132"
     transform="translate(-0.91613513,-111.79688)">
    <g
       transform="translate(133.86194,192.81975)"
       id="g3130">
      <g
         id="g3128" />
    </g>
  </g>
  <g
     fill="#ab1404"
     fill-opacity="1"
     id="g3140"
     transform="translate(-0.91613513,-111.79688)">
    <g
       transform="translate(137.21131,192.81975)"
       id="g3138">
      <g
         id="g3136">
        <path
           d="M 10.695312,-8.628906 V -9.125 C 10.183594,-9.097656 9.675781,-9.085938 9.167969,-9.085938 8.65625,-9.085938 8.132812,-9.097656 7.625,-9.125 v 0.496094 l 0.496094,0.039062 c 0.601562,0.054688 0.644531,0.132813 0.644531,1.3125 v 4.8125 L 4.582031,-7.34375 C 4.300781,-7.664062 4.058594,-7.988281 3.203125,-9.125 c -0.375,0.027344 -0.75,0.039062 -1.125,0.039062 -0.535156,0 -1.074219,-0.011718 -1.609375,-0.039062 v 0.496094 l 0.496094,0.039062 c 0.601562,0.054688 0.644531,0.132813 0.644531,1.3125 v 5.46875 c 0,1.179688 -0.042969,1.257813 -0.644531,1.3125 L 0.46875,-0.457031 V 0.0390625 C 0.976562,0.0117188 1.5,0 2.011719,0 2.519531,0 3.027344,0.0117188 3.539062,0.0390625 V -0.457031 L 3.042969,-0.496094 C 2.4375,-0.550781 2.398438,-0.617188 2.398438,-1.808594 v -5.265625 l 4.367187,5.25 L 8.402344,0.0390625 9.5,0.214844 9.59375,0.160156 9.554688,-1.191406 v -6.085938 c 0,-1.179687 0.039062,-1.257812 0.644531,-1.3125 z m 0,0"
           id="path3134" />
      </g>
    </g>
  </g>
  <g
     fill="#ab1404"
     fill-opacity="1"
     id="g3148"
     transform="translate(-0.91613513,-111.79688)">
    <g
       transform="translate(148.37141,192.81975)"
       id="g3146">
      <g
         id="g3144">
        <path
           d="m 6.179688,-3.257812 v -0.695313 c 0,-1.433594 -0.992188,-2.359375 -2.546876,-2.359375 -0.457031,0 -0.804687,0.09375 -1.167968,0.308594 l -0.628906,0.375 c -0.882813,0.523437 -1.273438,1.3125 -1.273438,2.601562 0,2.128906 1.058594,3.253906 3.070312,3.253906 0.777344,0 1.246094,-0.132812 2.117188,-0.574218 L 6.042969,-0.992188 5.882812,-1.191406 c -0.628906,0.347656 -1.03125,0.46875 -1.582031,0.46875 -0.667969,0 -1.324219,-0.363282 -1.660156,-0.925782 -0.226563,-0.375 -0.308594,-0.695312 -0.335937,-1.339843 h 1.753906 c 0.765625,0 1.355468,-0.082031 2.121094,-0.269531 z M 4.476562,-3.699219 c 0,0 -0.683593,0.039063 -1.125,0.039063 -0.269531,0 0.066407,0 -0.699218,-0.023438 L 2.222656,-3.699219 c 0,-1.324219 0.363282,-1.863281 1.140625,-1.863281 0.765625,0 1.113281,0.539062 1.113281,1.863281 z m 0,0"
           id="path3142" />
      </g>
    </g>
  </g>
  <g
     fill="#ab1404"
     fill-opacity="1"
     id="g3156"
     transform="translate(-0.91613513,-111.79688)">
    <g
       transform="translate(155.07015,192.81975)"
       id="g3154">
      <g
         id="g3152">
        <path
           d="M 7.304688,-5.640625 V -6.152344 C 6.875,-6.125 6.445312,-6.109375 6.015625,-6.109375 5.589844,-6.109375 5.144531,-6.125 4.71875,-6.152344 v 0.511719 l 0.507812,0.027344 c 0.1875,0.011719 0.308594,0.105469 0.308594,0.226562 0,0.160157 -0.039062,0.347657 -0.121094,0.550781 L 4.597656,-2.8125 4.128906,-1.742188 2.949219,-4.703125 c -0.136719,-0.335937 -0.1875,-0.535156 -0.1875,-0.683594 0,-0.132812 0.105469,-0.214843 0.308593,-0.226562 L 3.617188,-5.640625 V -6.152344 C 3.042969,-6.125 2.464844,-6.109375 1.890625,-6.109375 1.3125,-6.109375 0.722656,-6.125 0.148438,-6.152344 v 0.511719 l 0.335937,0.027344 C 0.710938,-5.601562 0.898438,-5.359375 1.125,-4.785156 L 3.042969,0.0390625 H 4.195312 C 4.410156,-0.5625 4.542969,-0.898438 4.703125,-1.257812 l 1.714844,-3.859376 c 0.136719,-0.296874 0.253906,-0.417968 0.484375,-0.457031 z m 0,0"
           id="path3150" />
      </g>
    </g>
  </g>
  <g
     fill="#ab1404"
     fill-opacity="1"
     id="g3164"
     transform="translate(-0.91613513,-111.79688)">
    <g
       transform="translate(162.51915,192.81975)"
       id="g3162">
      <g
         id="g3160">
        <path
           d="M 6.40625,0.0390625 V -0.457031 L 6.003906,-0.496094 c -0.308594,-0.027344 -0.375,-0.1875 -0.375,-0.816406 v -3.109375 c 0,-1.179687 -0.792968,-1.890625 -2.144531,-1.890625 -0.578125,0 -1.097656,0.148438 -1.609375,0.457031 l -0.710938,0.429688 v 0.921875 l 0.402344,0.09375 0.296875,-0.667969 c 0.039063,-0.09375 0.414063,-0.1875 0.777344,-0.1875 0.898437,0 1.324219,0.480469 1.367187,1.582031 l -1.179687,0.238282 c -1.6875,0.351562 -2.292969,0.871093 -2.292969,2.011718 0,1.085938 0.550782,1.660156 1.570313,1.660156 0.308593,0 0.519531,-0.050781 0.65625,-0.1601558 L 4.007812,-0.898438 3.941406,-0.0664062 4.007812,0.0390625 C 4.410156,0.0117188 4.824219,0 5.226562,0 5.613281,0 6.015625,0.0117188 6.40625,0.0390625 Z M 4.007812,-1.542969 c -0.269531,0.351563 -0.75,0.605469 -1.152343,0.605469 -0.429688,0 -0.683594,-0.320312 -0.683594,-0.84375 0,-0.65625 0.28125,-0.925781 1.230469,-1.179688 l 0.605468,-0.160156 z m 0,0"
           id="path3158" />
      </g>
    </g>
  </g>
  <g
     fill="#ab1404"
     fill-opacity="1"
     id="g3172"
     transform="translate(-0.91613513,-111.79688)">
    <g
       transform="translate(169.21789,192.81975)"
       id="g3170">
      <g
         id="g3168">
        <path
           d="M 7.730469,0.0390625 V -0.457031 L 7.289062,-0.484375 C 6.875,-0.507812 6.808594,-0.617188 6.808594,-1.339844 V -9.566406 L 6.699219,-9.648438 5.734375,-9.355469 c -0.386719,0.121094 -0.84375,0.203125 -1.621094,0.28125 v 0.484375 l 0.710938,0.039063 c 0.292969,0.015625 0.347656,0.148437 0.347656,0.9375 v 1.636719 L 4.90625,-6.082031 C 4.53125,-6.230469 4.167969,-6.3125 3.832031,-6.3125 c -0.429687,0 -0.816406,0.121094 -1.179687,0.347656 L 1.6875,-5.332031 c -0.761719,0.496093 -1.125,1.273437 -1.125,2.425781 0,1.914062 0.992188,3.132812 2.558594,3.132812 0.308594,0 0.523437,-0.050781 0.65625,-0.1601558 L 5.171875,-1.070312 5.105469,-0.0664062 5.171875,0.0390625 C 5.574219,0.0117188 5.976562,0 6.378906,0 6.835938,0 7.277344,0.0117188 7.730469,0.0390625 Z M 5.171875,-2.144531 c 0,0.601562 -0.628906,1.097656 -1.367187,1.097656 -0.949219,0 -1.554688,-0.921875 -1.554688,-2.371094 0,-1.351562 0.46875,-2.035156 1.421875,-2.035156 0.578125,0 1.058594,0.265625 1.5,0.84375 z m 0,0"
           id="path3166" />
      </g>
    </g>
  </g>
  <g
     fill="#ab1404"
     fill-opacity="1"
     id="g3180"
     transform="translate(-0.91613513,-111.79688)">
    <g
       transform="translate(177.40375,192.81975)"
       id="g3178">
      <g
         id="g3176">
        <path
           d="M 6.40625,0.0390625 V -0.457031 L 6.003906,-0.496094 c -0.308594,-0.027344 -0.375,-0.1875 -0.375,-0.816406 v -3.109375 c 0,-1.179687 -0.792968,-1.890625 -2.144531,-1.890625 -0.578125,0 -1.097656,0.148438 -1.609375,0.457031 l -0.710938,0.429688 v 0.921875 l 0.402344,0.09375 0.296875,-0.667969 c 0.039063,-0.09375 0.414063,-0.1875 0.777344,-0.1875 0.898437,0 1.324219,0.480469 1.367187,1.582031 l -1.179687,0.238282 c -1.6875,0.351562 -2.292969,0.871093 -2.292969,2.011718 0,1.085938 0.550782,1.660156 1.570313,1.660156 0.308593,0 0.519531,-0.050781 0.65625,-0.1601558 L 4.007812,-0.898438 3.941406,-0.0664062 4.007812,0.0390625 C 4.410156,0.0117188 4.824219,0 5.226562,0 5.613281,0 6.015625,0.0117188 6.40625,0.0390625 Z M 4.007812,-1.542969 c -0.269531,0.351563 -0.75,0.605469 -1.152343,0.605469 -0.429688,0 -0.683594,-0.320312 -0.683594,-0.84375 0,-0.65625 0.28125,-0.925781 1.230469,-1.179688 l 0.605468,-0.160156 z m 0,0"
           id="path3174" />
      </g>
    </g>
  </g>
</svg>
