<?xml version="1.0" encoding="UTF-8" standalone="no"?>
<svg
   width="487.92038"
   zoomAndPan="magnify"
   viewBox="0 0 365.94038 301.74107"
   height="402.32132"
   preserveAspectRatio="xMidYMid"
   version="1.0"
   id="svg110"
   sodipodi:docname="TIP Letters.svg"
   inkscape:version="1.2.1 (9c6d41e410, 2022-07-14)"
   xmlns:inkscape="http://www.inkscape.org/namespaces/inkscape"
   xmlns:sodipodi="http://sodipodi.sourceforge.net/DTD/sodipodi-0.dtd"
   xmlns="http://www.w3.org/2000/svg"
   xmlns:svg="http://www.w3.org/2000/svg">
  <sodipodi:namedview
     id="namedview112"
     pagecolor="#ffffff"
     bordercolor="#000000"
     borderopacity="0.25"
     inkscape:showpageshadow="2"
     inkscape:pageopacity="0.0"
     inkscape:pagecheckerboard="0"
     inkscape:deskcolor="#d1d1d1"
     showgrid="false"
     inkscape:zoom="1.628"
     inkscape:cx="241.40049"
     inkscape:cy="185.19656"
     inkscape:window-width="1920"
     inkscape:window-height="1001"
     inkscape:window-x="-9"
     inkscape:window-y="-9"
     inkscape:window-maximized="1"
     inkscape:current-layer="svg110" />
  <defs
     id="defs60">
    <g
       id="g58" />
  </defs>
  <g
     fill="#ab1404"
     fill-opacity="1"
     id="g68"
     transform="translate(-6.424875,-49.423994)">
    <g
       transform="translate(71.261359,165.16618)"
       id="g66">
      <g
         id="g64">
        <path
           d="m 110.47266,-114.89063 -1.01953,-0.85156 c -17.507818,0.33985 -35.183599,0.51172 -52.687505,0.51172 -17.675781,0 -35.179687,-0.17187 -52.855469,-0.51172 l -1.019531,0.85156 c 1.359375,8.15625 1.699219,14.10547 2.207031,27.023442 h 6.800782 l 0.847656,-11.726562 c 0.511718,-6.80078 6.800781,-5.60938 12.066406,-5.60938 h 19.886719 v 82.257818 c 0,15.128906 -0.171875,15.46875 -8.160157,16.148437 l -6.285156,0.507813 V 0.511719 C 39.089844,0.171875 47.757812,0 56.597656,0 65.433594,0 74.269531,0.171875 83.109375,0.511719 v -6.800781 l -6.289063,-0.507813 c -7.988281,-0.679687 -8.15625,-1.019531 -8.15625,-16.148437 v -82.257818 h 19.882813 c 8.328125,0 9.519531,-1.1914 12.066405,5.60938 l 0.85156,11.726562 h 6.79688 c 0.33984,-12.917972 0.85156,-18.867192 2.21094,-27.023442 z m 0,0"
           id="path62" />
      </g>
    </g>
  </g>
  <g
     fill="#ab1404"
     fill-opacity="1"
     id="g76"
     transform="translate(-6.424875,-49.423994)">
    <g
       transform="translate(151.56615,206.14845)"
       id="g74">
      <g
         id="g72">
        <path
           d="m 59.484375,0.511719 v -6.800781 l -6.289063,-0.507813 c -7.988281,-0.679687 -8.15625,-1.019531 -8.15625,-16.148437 v -69.339844 c 0,-15.128904 0.167969,-15.468754 8.15625,-16.148434 l 6.289063,-0.50782 v -6.80078 c -8.835937,0.33985 -17.675781,0.51172 -26.511719,0.51172 -8.839844,0 -17.507812,-0.17187 -26.34375,-0.51172 v 6.80078 l 6.289063,0.50782 c 7.988281,0.67968 8.15625,1.01953 8.15625,16.148434 v 69.339844 c 0,15.128906 -0.167969,15.46875 -8.15625,16.148437 L 6.628906,-6.289062 V 0.511719 C 15.464844,0.171875 24.132812,0 32.972656,0 41.808594,0 50.648438,0.171875 59.484375,0.511719 Z m 0,0"
           id="path70" />
      </g>
    </g>
  </g>
  <g
     fill="#ab1404"
     fill-opacity="1"
     id="g84"
     transform="translate(-6.424875,-49.423994)">
    <g
       transform="translate(204.95436,182.25679)"
       id="g82">
      <g
         id="g80">
        <path
           d="m 100.95313,-90.246094 c 0,-16.996096 -17.675786,-25.496096 -32.121099,-25.496096 -10.875,0 -21.925781,0.51172 -32.800781,0.51172 -9.859375,0 -19.546875,-0.17187 -29.402344,-0.51172 v 6.28906 l 6.289063,0.51172 c 7.648437,0.67969 8.15625,1.69922 8.15625,16.656254 v 69.339844 c 0,15.128906 -0.167969,15.46875 -8.15625,16.148437 L 6.628906,-6.289062 V 0.511719 C 15.464844,0.171875 24.304688,0 33.140625,0 42.488281,0 51.835938,0.171875 61.183594,0.511719 v -6.800781 l -7.988282,-0.507813 c -7.816406,-0.511719 -8.15625,-1.191406 -8.15625,-16.148437 v -82.769528 c 2.550782,-1.01954 5.609376,-1.52735 10.195313,-1.52735 14.109375,0 21.246094,7.64844 21.246094,22.77344 0,13.597656 -6.796875,22.433594 -17.503907,22.433594 h -6.121093 v 6.628906 c 3.230469,0.511719 6.460937,1.191406 9.859375,1.191406 21.925781,0 38.238286,-15.46875 38.238286,-36.03125 z m 0,0"
           id="path78" />
      </g>
    </g>
  </g>
  <g
     fill="#ab1404"
     fill-opacity="1"
     id="g92"
     transform="translate(-6.424875,-49.423994)">
    <g
       transform="translate(0.475656,295.88606)"
       id="g90">
      <g
         id="g88">
        <path
           d="m 135.62109,-109.44922 v -6.28906 c -6.45703,0.33984 -12.91796,0.51172 -19.375,0.51172 -6.45703,0 -13.08593,-0.17188 -19.542965,-0.51172 v 6.28906 l 6.289065,0.51172 c 7.64453,0.67969 8.15625,1.69922 8.15625,16.652344 v 61.015625 L 58.125,-93.132812 c -3.570312,-4.078126 -6.628906,-8.160158 -17.507812,-22.605468 -4.757813,0.33984 -9.515626,0.51172 -14.273438,0.51172 -6.800781,0 -13.597656,-0.17188 -20.394531,-0.51172 v 6.28906 l 6.289062,0.51172 c 7.644531,0.67969 8.15625,1.69922 8.15625,16.652344 v 69.339844 c 0,14.957031 -0.511719,15.976562 -8.15625,16.65625 L 5.949219,-5.777344 V 0.511719 C 12.40625,0.171875 19.035156,0 25.492188,0 c 6.457031,0 12.917968,0.171875 19.375,0.511719 v -6.289063 l -6.289063,-0.511718 c -7.648437,-0.679688 -8.15625,-1.527344 -8.15625,-16.65625 v -66.789063 l 55.402344,66.621094 20.734371,23.625 13.9375,2.207031 1.1875,-0.679688 -0.50781,-17.164062 v -77.160156 c 0,-14.953124 0.50781,-15.972654 8.15625,-16.652344 z m 0,0"
           id="path86" />
      </g>
    </g>
  </g>
  <g
     fill="#ab1404"
     fill-opacity="1"
     id="g100"
     transform="translate(-6.424875,-49.423994)">
    <g
       transform="translate(119.23939,348.44623)"
       id="g98">
      <g
         id="g96">
        <path
           d="m 135.63281,-109.46094 v -6.28515 c -6.45703,0.33984 -12.91797,0.50781 -19.375,0.50781 -6.45703,0 -13.08593,-0.16797 -19.546872,-0.50781 v 6.28515 L 103,-108.94922 c 7.64844,0.67969 8.16016,1.69922 8.16016,16.656251 v 61.019531 L 58.128906,-93.140625 C 54.558594,-97.222656 51.5,-101.30078 40.621094,-115.74609 c -4.757813,0.33984 -9.515625,0.50781 -14.277344,0.50781 -6.796875,0 -13.597656,-0.16797 -20.394531,-0.50781 v 6.28515 l 6.289062,0.51172 c 7.648438,0.67969 8.15625,1.69922 8.15625,16.656251 v 69.347657 c 0,14.957031 -0.507812,15.976562 -8.15625,16.65625 L 5.949219,-5.777344 V 0.511719 C 12.40625,0.171875 19.035156,0 25.496094,0 c 6.457031,0 12.917968,0.171875 19.375,0.511719 v -6.289063 l -6.289063,-0.511718 c -7.648437,-0.679688 -8.15625,-1.53125 -8.15625,-16.65625 v -66.796876 l 55.40625,66.625 20.738279,23.628907 13.9375,2.207031 1.1875,-0.679688 -0.50781,-17.167968 v -77.164063 c 0,-14.957031 0.50781,-15.976561 8.15625,-16.656251 z m 0,0"
           id="path94" />
      </g>
    </g>
  </g>
  <g
     fill="#ab1404"
     fill-opacity="1"
     id="g108"
     transform="translate(-6.424875,-49.423994)">
    <g
       transform="translate(242.68155,323.25818)"
       id="g106">
      <g
         id="g104">
        <path
           d="m 129.68359,-109.46094 v -6.28515 c -6.6289,0.33984 -13.08593,0.50781 -19.71484,0.50781 -6.45703,0 -13.085938,-0.16797 -19.546875,-0.50781 v 6.28515 l 7.820313,0.51172 c 3.910152,0.33984 6.289062,1.87109 6.289062,4.41797 0,2.55078 -1.69922,7.820312 -5.269531,16.828125 l -24.136719,60 -26.683594,-65.777344 c -3.570312,-8.671871 -3.570312,-9.179691 -3.570312,-12.238281 0,-1.53125 2.039062,-3.05859 4.417968,-3.23047 l 8.5,-0.51172 v -6.28515 c -9.179687,0.33984 -18.355468,0.50781 -27.535156,0.50781 -9.007812,0 -17.847656,-0.16797 -26.855468,-0.50781 v 6.28515 l 6.96875,0.51172 c 4.25,0.33984 6.96875,3.57031 10.539062,12.238282 L 61.527344,0.511719 h 12.917968 c 2.210938,-5.609375 4.078126,-11.390625 6.460938,-16.828125 l 35.35156,-84.644534 c 2.21094,-5.4375 4.41797,-7.64844 7.98828,-7.98828 z m 0,0"
           id="path102" />
      </g>
    </g>
  </g>
</svg>
