<svg xmlns="http://www.w3.org/2000/svg" xmlns:xlink="http://www.w3.org/1999/xlink" width="500" zoomAndPan="magnify" viewBox="0 0 375 374.999991" height="500" preserveAspectRatio="xMidYMid meet" version="1.0"><defs><g/><clipPath id="7aede72ba6"><path d="M 0 0 L 374.851562 0 L 374.851562 374.851562 L 0 374.851562 Z M 0 0 " clip-rule="nonzero"/></clipPath><clipPath id="454020aec8"><path d="M 4.398438 4.398438 L 370.6875 4.398438 L 370.6875 370.6875 L 4.398438 370.6875 Z M 4.398438 4.398438 " clip-rule="nonzero"/></clipPath><clipPath id="4e41625a0f"><path d="M 8.617188 8.773438 L 365.125 8.773438 L 365.125 365.277344 L 8.617188 365.277344 Z M 8.617188 8.773438 " clip-rule="nonzero"/></clipPath></defs><g clip-path="url(#7aede72ba6)"><path fill="#ab1404" d="M 319.972656 54.878906 C 284.585938 19.492188 237.507812 0 187.425781 0 C 84.117188 0 0 84.042969 0 187.425781 C 0 290.808594 84.042969 374.851562 187.425781 374.851562 C 290.808594 374.851562 374.851562 290.808594 374.851562 187.425781 C 374.851562 137.347656 355.359375 90.265625 319.972656 54.878906 Z M 319.972656 54.878906 " fill-opacity="1" fill-rule="nonzero"/></g><g clip-path="url(#454020aec8)"><path fill="#ffffff" d="M 187.542969 370.6875 C 86.585938 370.6875 4.398438 288.5 4.398438 187.542969 C 4.398438 86.585938 86.585938 4.398438 187.542969 4.398438 C 288.5 4.398438 370.6875 86.585938 370.6875 187.542969 C 370.6875 288.5 288.5 370.6875 187.542969 370.6875 Z M 187.542969 7.105469 C 88.03125 7.105469 7.105469 88.03125 7.105469 187.542969 C 7.105469 287.054688 88.03125 367.980469 187.542969 367.980469 C 287.054688 367.980469 367.980469 287.054688 367.980469 187.542969 C 367.980469 88.03125 287.054688 7.105469 187.542969 7.105469 Z M 187.542969 7.105469 " fill-opacity="1" fill-rule="nonzero"/></g><g clip-path="url(#4e41625a0f)"><path fill="#ffffff" d="M 312.933594 60.964844 C 279.277344 27.3125 234.5 8.773438 186.871094 8.773438 C 88.617188 8.773438 8.617188 88.699219 8.617188 187.027344 C 8.617188 285.351562 88.546875 365.277344 186.871094 365.277344 C 285.195312 365.277344 365.125 285.351562 365.125 187.027344 C 365.125 139.394531 346.585938 94.617188 312.933594 60.964844 Z M 312.933594 60.964844 " fill-opacity="1" fill-rule="nonzero"/></g><g fill="#ab1404" fill-opacity="1"><g transform="translate(129.031621, 111.708742)"><g><path d="M 66.242188 -68.894531 L 65.632812 -69.402344 C 55.136719 -69.199219 44.535156 -69.097656 34.039062 -69.097656 C 23.441406 -69.097656 12.941406 -69.199219 2.34375 -69.402344 L 1.734375 -68.894531 C 2.546875 -64 2.75 -60.433594 3.058594 -52.6875 L 7.132812 -52.6875 L 7.644531 -59.722656 C 7.949219 -63.796875 11.71875 -63.085938 14.878906 -63.085938 L 26.804688 -63.085938 L 26.804688 -13.757812 C 26.804688 -4.6875 26.703125 -4.484375 21.910156 -4.078125 L 18.140625 -3.769531 L 18.140625 0.304688 C 23.441406 0.101562 28.636719 0 33.9375 0 C 39.238281 0 44.535156 0.101562 49.835938 0.304688 L 49.835938 -3.769531 L 46.066406 -4.078125 C 41.273438 -4.484375 41.171875 -4.6875 41.171875 -13.757812 L 41.171875 -63.085938 L 53.097656 -63.085938 C 58.089844 -63.085938 58.804688 -63.796875 60.332031 -59.722656 L 60.84375 -52.6875 L 64.917969 -52.6875 C 65.121094 -60.433594 65.429688 -64 66.242188 -68.894531 Z M 66.242188 -68.894531 "/></g></g></g><g fill="#ab1404" fill-opacity="1"><g transform="translate(175.369066, 134.511377)"><g><path d="M 35.667969 0.304688 L 35.667969 -3.769531 L 31.898438 -4.078125 C 27.109375 -4.484375 27.007812 -4.6875 27.007812 -13.757812 L 27.007812 -55.339844 C 27.007812 -64.410156 27.109375 -64.613281 31.898438 -65.019531 L 35.667969 -65.328125 L 35.667969 -69.402344 C 30.371094 -69.199219 25.070312 -69.097656 19.769531 -69.097656 C 14.472656 -69.097656 9.273438 -69.199219 3.976562 -69.402344 L 3.976562 -65.328125 L 7.746094 -65.019531 C 12.535156 -64.613281 12.636719 -64.410156 12.636719 -55.339844 L 12.636719 -13.757812 C 12.636719 -4.6875 12.535156 -4.484375 7.746094 -4.078125 L 3.976562 -3.769531 L 3.976562 0.304688 C 9.273438 0.101562 14.472656 0 19.769531 0 C 25.070312 0 30.371094 0.101562 35.667969 0.304688 Z M 35.667969 0.304688 "/></g></g></g><g fill="#ab1404" fill-opacity="1"><g transform="translate(208.877821, 125.314508)"><g><path d="M 60.535156 -54.117188 C 60.535156 -64.308594 49.9375 -69.402344 41.273438 -69.402344 C 34.753906 -69.402344 28.128906 -69.097656 21.605469 -69.097656 C 15.695312 -69.097656 9.886719 -69.199219 3.976562 -69.402344 L 3.976562 -65.632812 L 7.746094 -65.328125 C 12.332031 -64.917969 12.636719 -64.308594 12.636719 -55.339844 L 12.636719 -13.757812 C 12.636719 -4.6875 12.535156 -4.484375 7.746094 -4.078125 L 3.976562 -3.769531 L 3.976562 0.304688 C 9.273438 0.101562 14.574219 0 19.875 0 C 25.476562 0 31.082031 0.101562 36.6875 0.304688 L 36.6875 -3.769531 L 31.898438 -4.078125 C 27.210938 -4.382812 27.007812 -4.789062 27.007812 -13.757812 L 27.007812 -63.390625 C 28.535156 -64 30.371094 -64.308594 33.121094 -64.308594 C 41.582031 -64.308594 45.859375 -59.722656 45.859375 -50.652344 C 45.859375 -42.496094 41.785156 -37.199219 35.363281 -37.199219 L 31.695312 -37.199219 L 31.695312 -33.222656 C 33.632812 -32.917969 35.566406 -32.511719 37.605469 -32.511719 C 50.753906 -32.511719 60.535156 -41.785156 60.535156 -54.117188 Z M 60.535156 -54.117188 "/></g></g></g><g fill="#ab1404" fill-opacity="1"><g transform="translate(50.240056, 167.328768)"><g><path d="M 26.496094 -27.554688 L 26.25 -27.757812 C 22.050781 -27.679688 17.8125 -27.636719 13.613281 -27.636719 C 9.375 -27.636719 5.175781 -27.679688 0.9375 -27.757812 L 0.691406 -27.554688 C 1.019531 -25.597656 1.101562 -24.171875 1.222656 -21.074219 L 2.851562 -21.074219 L 3.058594 -23.886719 C 3.179688 -25.515625 4.6875 -25.230469 5.953125 -25.230469 L 10.71875 -25.230469 L 10.71875 -5.503906 C 10.71875 -1.875 10.679688 -1.792969 8.765625 -1.628906 L 7.253906 -1.507812 L 7.253906 0.121094 C 9.375 0.0390625 11.453125 0 13.574219 0 C 15.695312 0 17.8125 0.0390625 19.933594 0.121094 L 19.933594 -1.507812 L 18.425781 -1.628906 C 16.507812 -1.792969 16.46875 -1.875 16.46875 -5.503906 L 16.46875 -25.230469 L 21.238281 -25.230469 C 23.234375 -25.230469 23.519531 -25.515625 24.132812 -23.886719 L 24.335938 -21.074219 L 25.964844 -21.074219 C 26.046875 -24.171875 26.167969 -25.597656 26.496094 -27.554688 Z M 26.496094 -27.554688 "/></g></g></g><g fill="#ab1404" fill-opacity="1"><g transform="translate(77.427398, 167.328768)"><g><path d="M 15.855469 -18.953125 C 15.449219 -19.117188 14.917969 -19.199219 14.347656 -19.199219 C 13.207031 -19.199219 12.433594 -18.710938 10.882812 -17.039062 L 9.089844 -15.082031 L 9.089844 -18.953125 L 8.683594 -19.199219 L 5.828125 -18.300781 C 4.523438 -17.894531 3.789062 -17.773438 1.222656 -17.445312 L 1.222656 -15.980469 L 3.058594 -15.855469 C 3.996094 -15.773438 4.117188 -15.410156 4.117188 -13.003906 L 4.117188 -4.078125 C 4.117188 -1.875 3.914062 -1.550781 2.648438 -1.46875 L 1.222656 -1.386719 L 1.222656 0.121094 C 2.976562 0.0390625 4.726562 0 6.480469 0 C 8.519531 0 10.597656 0.0390625 12.636719 0.121094 L 12.636719 -1.386719 L 11.046875 -1.46875 C 9.292969 -1.550781 9.089844 -1.792969 9.089844 -4.078125 L 9.089844 -12.148438 C 9.089844 -13.410156 10.761719 -14.757812 12.351562 -14.757812 C 13.371094 -14.757812 14.105469 -14.265625 14.675781 -13.289062 L 15.652344 -13.695312 Z M 15.855469 -18.953125 "/></g></g></g><g fill="#ab1404" fill-opacity="1"><g transform="translate(93.283282, 167.328768)"><g><path d="M 19.484375 0.121094 L 19.484375 -1.386719 L 18.261719 -1.507812 C 17.324219 -1.589844 17.121094 -2.078125 17.121094 -3.996094 L 17.121094 -13.453125 C 17.121094 -17.039062 14.714844 -19.199219 10.597656 -19.199219 C 8.84375 -19.199219 7.253906 -18.75 5.707031 -17.8125 L 3.546875 -16.507812 L 3.546875 -13.695312 L 4.769531 -13.410156 L 5.667969 -15.449219 C 5.789062 -15.734375 6.929688 -16.019531 8.03125 -16.019531 C 10.761719 -16.019531 12.066406 -14.550781 12.1875 -11.210938 L 8.601562 -10.476562 C 3.464844 -9.417969 1.628906 -7.828125 1.628906 -4.363281 C 1.628906 -1.058594 3.300781 0.691406 6.398438 0.691406 C 7.335938 0.691406 7.988281 0.53125 8.398438 0.203125 L 12.1875 -2.730469 L 11.984375 -0.203125 L 12.1875 0.121094 C 13.410156 0.0390625 14.675781 0 15.898438 0 C 17.078125 0 18.300781 0.0390625 19.484375 0.121094 Z M 12.1875 -4.6875 C 11.371094 -3.628906 9.90625 -2.851562 8.683594 -2.851562 C 7.378906 -2.851562 6.605469 -3.832031 6.605469 -5.421875 C 6.605469 -7.417969 7.460938 -8.234375 10.355469 -9.007812 L 12.1875 -9.496094 Z M 12.1875 -4.6875 "/></g></g></g><g fill="#ab1404" fill-opacity="1"><g transform="translate(113.663593, 167.328768)"><g><path d="M 23.765625 0.121094 L 23.765625 -1.386719 L 22.417969 -1.46875 C 21.113281 -1.550781 20.953125 -1.875 20.953125 -4.078125 L 20.953125 -18.953125 L 20.542969 -19.199219 L 17.691406 -18.300781 C 16.347656 -17.894531 15.613281 -17.773438 13.085938 -17.445312 L 13.085938 -15.980469 L 14.917969 -15.855469 C 15.855469 -15.773438 15.980469 -15.410156 15.980469 -13.003906 L 15.980469 -6.644531 C 15.980469 -4.605469 14.226562 -2.976562 12.066406 -2.976562 C 9.742188 -2.976562 8.886719 -4.402344 8.886719 -8.316406 L 8.886719 -18.953125 L 8.480469 -19.199219 L 5.625 -18.300781 C 4.28125 -17.894531 3.585938 -17.773438 1.019531 -17.445312 L 1.019531 -15.980469 L 2.851562 -15.855469 C 3.789062 -15.773438 3.914062 -15.410156 3.914062 -13.003906 L 3.914062 -5.707031 C 3.914062 -1.589844 6.113281 0.691406 10.070312 0.691406 C 11.25 0.691406 12.269531 0.367188 12.882812 -0.246094 L 15.980469 -3.261719 L 15.773438 0.121094 C 17.078125 0.0390625 18.34375 0 19.648438 0 C 21.035156 0 22.378906 0.0390625 23.765625 0.121094 Z M 23.765625 0.121094 "/></g></g></g><g fill="#ab1404" fill-opacity="1"><g transform="translate(138.568339, 167.328768)"><g><path d="M 35.21875 0.121094 L 35.21875 -1.386719 L 33.875 -1.46875 C 32.609375 -1.550781 32.40625 -1.875 32.40625 -4.078125 L 32.40625 -11.65625 C 32.40625 -17.285156 30.9375 -19.199219 26.578125 -19.199219 C 25.230469 -19.199219 24.335938 -18.953125 23.640625 -18.425781 L 20.382812 -15.898438 C 19.445312 -18.222656 17.8125 -19.199219 15 -19.199219 C 13.695312 -19.199219 12.800781 -18.953125 12.105469 -18.425781 L 8.84375 -15.898438 L 8.84375 -18.953125 L 8.601562 -19.199219 C 4.363281 -17.8125 3.21875 -17.570312 0.976562 -17.445312 L 0.976562 -15.980469 L 2.8125 -15.855469 C 3.75 -15.773438 3.871094 -15.410156 3.871094 -13.003906 L 3.871094 -4.078125 C 3.871094 -1.875 3.667969 -1.550781 2.40625 -1.46875 L 0.976562 -1.386719 L 0.976562 0.121094 C 2.730469 0.0390625 4.484375 0 6.238281 0 C 7.949219 0 9.703125 0.0390625 11.414062 0.121094 L 11.414062 -1.386719 L 10.3125 -1.46875 C 9.007812 -1.550781 8.84375 -1.875 8.84375 -4.078125 L 8.84375 -12.921875 C 8.84375 -14.265625 10.515625 -15.695312 12.148438 -15.695312 C 14.511719 -15.695312 15.652344 -14.144531 15.652344 -10.964844 L 15.652344 -4.078125 C 15.652344 -1.875 15.488281 -1.550781 14.183594 -1.46875 L 12.921875 -1.386719 L 12.921875 0.121094 C 14.675781 0.0390625 16.425781 0 18.179688 0 C 19.972656 0 21.726562 0.0390625 23.519531 0.121094 L 23.519531 -1.386719 L 22.09375 -1.46875 C 20.828125 -1.550781 20.625 -1.875 20.625 -4.078125 L 20.625 -12.921875 C 20.625 -14.265625 22.296875 -15.695312 23.929688 -15.695312 C 26.292969 -15.695312 27.433594 -14.144531 27.433594 -10.964844 L 27.433594 0.121094 C 28.695312 0.0390625 29.960938 0 31.222656 0 C 32.570312 0 33.875 0.0390625 35.21875 0.121094 Z M 35.21875 0.121094 "/></g></g></g><g fill="#ab1404" fill-opacity="1"><g transform="translate(174.804534, 167.328768)"><g><path d="M 19.484375 0.121094 L 19.484375 -1.386719 L 18.261719 -1.507812 C 17.324219 -1.589844 17.121094 -2.078125 17.121094 -3.996094 L 17.121094 -13.453125 C 17.121094 -17.039062 14.714844 -19.199219 10.597656 -19.199219 C 8.84375 -19.199219 7.253906 -18.75 5.707031 -17.8125 L 3.546875 -16.507812 L 3.546875 -13.695312 L 4.769531 -13.410156 L 5.667969 -15.449219 C 5.789062 -15.734375 6.929688 -16.019531 8.03125 -16.019531 C 10.761719 -16.019531 12.066406 -14.550781 12.1875 -11.210938 L 8.601562 -10.476562 C 3.464844 -9.417969 1.628906 -7.828125 1.628906 -4.363281 C 1.628906 -1.058594 3.300781 0.691406 6.398438 0.691406 C 7.335938 0.691406 7.988281 0.53125 8.398438 0.203125 L 12.1875 -2.730469 L 11.984375 -0.203125 L 12.1875 0.121094 C 13.410156 0.0390625 14.675781 0 15.898438 0 C 17.078125 0 18.300781 0.0390625 19.484375 0.121094 Z M 12.1875 -4.6875 C 11.371094 -3.628906 9.90625 -2.851562 8.683594 -2.851562 C 7.378906 -2.851562 6.605469 -3.832031 6.605469 -5.421875 C 6.605469 -7.417969 7.460938 -8.234375 10.355469 -9.007812 L 12.1875 -9.496094 Z M 12.1875 -4.6875 "/></g></g></g><g fill="#ab1404" fill-opacity="1"><g transform="translate(72.789266, 206.057381)"><g><path d="M 14.265625 0.121094 L 14.265625 -1.507812 L 12.757812 -1.628906 C 10.84375 -1.792969 10.800781 -1.875 10.800781 -5.503906 L 10.800781 -22.132812 C 10.800781 -25.761719 10.84375 -25.84375 12.757812 -26.007812 L 14.265625 -26.128906 L 14.265625 -27.757812 C 12.148438 -27.679688 10.027344 -27.636719 7.90625 -27.636719 C 5.789062 -27.636719 3.710938 -27.679688 1.589844 -27.757812 L 1.589844 -26.128906 L 3.097656 -26.007812 C 5.015625 -25.84375 5.054688 -25.761719 5.054688 -22.132812 L 5.054688 -5.503906 C 5.054688 -1.875 5.015625 -1.792969 3.097656 -1.628906 L 1.589844 -1.507812 L 1.589844 0.121094 C 3.710938 0.0390625 5.789062 0 7.90625 0 C 10.027344 0 12.148438 0.0390625 14.265625 0.121094 Z M 14.265625 0.121094 "/></g></g></g><g fill="#ab1404" fill-opacity="1"><g transform="translate(88.645151, 206.057381)"><g><path d="M 23.929688 0.121094 L 23.929688 -1.386719 L 22.582031 -1.46875 C 21.320312 -1.550781 21.113281 -1.875 21.113281 -4.078125 L 21.113281 -11.65625 C 21.113281 -14.796875 20.75 -16.347656 19.6875 -17.488281 C 18.628906 -18.585938 16.957031 -19.199219 14.960938 -19.199219 C 13.738281 -19.199219 12.757812 -18.953125 12.105469 -18.425781 L 8.84375 -15.898438 L 8.84375 -18.953125 L 8.601562 -19.199219 C 4.363281 -17.8125 3.21875 -17.570312 0.976562 -17.445312 L 0.976562 -15.980469 L 2.8125 -15.855469 C 3.75 -15.773438 3.871094 -15.410156 3.871094 -13.003906 L 3.871094 -4.078125 C 3.871094 -1.875 3.667969 -1.550781 2.40625 -1.46875 L 0.976562 -1.386719 L 0.976562 0.121094 C 2.730469 0.0390625 4.484375 0 6.238281 0 C 8.070312 0 9.90625 0.0390625 11.738281 0.121094 L 11.738281 -1.386719 L 10.3125 -1.46875 C 9.050781 -1.550781 8.84375 -1.875 8.84375 -4.078125 L 8.84375 -12.921875 C 8.84375 -14.347656 10.515625 -15.695312 12.308594 -15.695312 C 15 -15.695312 16.140625 -14.265625 16.140625 -11.007812 L 16.140625 0.121094 C 17.363281 0.0390625 18.585938 0 19.8125 0 C 21.195312 0 22.542969 0.0390625 23.929688 0.121094 Z M 23.929688 0.121094 "/></g></g></g><g fill="#ab1404" fill-opacity="1"><g transform="translate(113.549897, 206.057381)"><g><path d="M 13.207031 -2.445312 L 12.882812 -3.21875 C 12.023438 -2.8125 11.65625 -2.691406 11.007812 -2.691406 C 9.089844 -2.691406 8.480469 -3.34375 8.480469 -5.339844 L 8.480469 -15.042969 L 12.800781 -15.042969 L 13.125 -17.691406 C 11.578125 -17.527344 10.027344 -17.445312 8.480469 -17.445312 L 8.480469 -19.8125 C 8.480469 -21.972656 8.601562 -23.316406 8.96875 -25.355469 L 8.398438 -25.761719 C 6.765625 -24.988281 5.503906 -24.5 3.425781 -23.722656 C 3.546875 -21.5625 3.585938 -20.828125 3.585938 -19.972656 L 3.585938 -17.527344 L 0.898438 -15.773438 L 0.898438 -14.878906 L 3.503906 -15.042969 L 3.503906 -4.484375 C 3.503906 -0.855469 5.015625 0.691406 8.558594 0.691406 C 9.824219 0.691406 10.84375 0.40625 11.210938 -0.0390625 Z M 13.207031 -2.445312 "/></g></g></g><g fill="#ab1404" fill-opacity="1"><g transform="translate(127.123185, 206.057381)"><g><path d="M 18.792969 -9.90625 L 18.792969 -12.023438 C 18.792969 -16.386719 15.773438 -19.199219 11.046875 -19.199219 C 9.660156 -19.199219 8.601562 -18.914062 7.5 -18.261719 L 5.585938 -17.121094 C 2.894531 -15.53125 1.710938 -13.125 1.710938 -9.210938 C 1.710938 -2.730469 4.933594 0.691406 11.046875 0.691406 C 13.410156 0.691406 14.835938 0.285156 17.488281 -1.058594 L 18.382812 -3.015625 L 17.894531 -3.628906 C 15.980469 -2.566406 14.757812 -2.203125 13.085938 -2.203125 C 11.046875 -2.203125 9.050781 -3.300781 8.03125 -5.015625 C 7.335938 -6.15625 7.09375 -7.132812 7.011719 -9.089844 L 12.351562 -9.089844 C 14.675781 -9.089844 16.46875 -9.335938 18.792969 -9.90625 Z M 13.613281 -11.25 C 13.613281 -11.25 11.535156 -11.128906 10.191406 -11.128906 C 9.375 -11.128906 10.394531 -11.128906 8.070312 -11.210938 L 6.765625 -11.25 C 6.765625 -15.285156 7.867188 -16.917969 10.230469 -16.917969 C 12.554688 -16.917969 13.613281 -15.285156 13.613281 -11.25 Z M 13.613281 -11.25 "/></g></g></g><g fill="#ab1404" fill-opacity="1"><g transform="translate(147.503496, 206.057381)"><g><path d="M 15.855469 -18.953125 C 15.449219 -19.117188 14.917969 -19.199219 14.347656 -19.199219 C 13.207031 -19.199219 12.433594 -18.710938 10.882812 -17.039062 L 9.089844 -15.082031 L 9.089844 -18.953125 L 8.683594 -19.199219 L 5.828125 -18.300781 C 4.523438 -17.894531 3.789062 -17.773438 1.222656 -17.445312 L 1.222656 -15.980469 L 3.058594 -15.855469 C 3.996094 -15.773438 4.117188 -15.410156 4.117188 -13.003906 L 4.117188 -4.078125 C 4.117188 -1.875 3.914062 -1.550781 2.648438 -1.46875 L 1.222656 -1.386719 L 1.222656 0.121094 C 2.976562 0.0390625 4.726562 0 6.480469 0 C 8.519531 0 10.597656 0.0390625 12.636719 0.121094 L 12.636719 -1.386719 L 11.046875 -1.46875 C 9.292969 -1.550781 9.089844 -1.792969 9.089844 -4.078125 L 9.089844 -12.148438 C 9.089844 -13.410156 10.761719 -14.757812 12.351562 -14.757812 C 13.371094 -14.757812 14.105469 -14.265625 14.675781 -13.289062 L 15.652344 -13.695312 Z M 15.855469 -18.953125 "/></g></g></g><g fill="#ab1404" fill-opacity="1"><g transform="translate(163.35938, 206.057381)"><g><path d="M 22.214844 -17.160156 L 22.214844 -18.710938 C 20.910156 -18.628906 19.605469 -18.585938 18.300781 -18.585938 C 17 -18.585938 15.652344 -18.628906 14.347656 -18.710938 L 14.347656 -17.160156 L 15.898438 -17.078125 C 16.46875 -17.039062 16.835938 -16.753906 16.835938 -16.386719 C 16.835938 -15.898438 16.710938 -15.328125 16.46875 -14.714844 L 13.980469 -8.558594 L 12.554688 -5.300781 L 8.96875 -14.308594 C 8.558594 -15.328125 8.398438 -15.9375 8.398438 -16.386719 C 8.398438 -16.792969 8.722656 -17.039062 9.335938 -17.078125 L 11.007812 -17.160156 L 11.007812 -18.710938 C 9.253906 -18.628906 7.5 -18.585938 5.746094 -18.585938 C 3.996094 -18.585938 2.203125 -18.628906 0.449219 -18.710938 L 0.449219 -17.160156 L 1.46875 -17.078125 C 2.160156 -17.039062 2.730469 -16.304688 3.425781 -14.550781 L 9.253906 0.121094 L 12.757812 0.121094 C 13.410156 -1.710938 13.820312 -2.730469 14.308594 -3.832031 L 19.527344 -15.570312 C 19.933594 -16.46875 20.300781 -16.835938 20.992188 -16.957031 Z M 22.214844 -17.160156 "/></g></g></g><g fill="#ab1404" fill-opacity="1"><g transform="translate(186.022287, 206.057381)"><g><path d="M 18.792969 -9.90625 L 18.792969 -12.023438 C 18.792969 -16.386719 15.773438 -19.199219 11.046875 -19.199219 C 9.660156 -19.199219 8.601562 -18.914062 7.5 -18.261719 L 5.585938 -17.121094 C 2.894531 -15.53125 1.710938 -13.125 1.710938 -9.210938 C 1.710938 -2.730469 4.933594 0.691406 11.046875 0.691406 C 13.410156 0.691406 14.835938 0.285156 17.488281 -1.058594 L 18.382812 -3.015625 L 17.894531 -3.628906 C 15.980469 -2.566406 14.757812 -2.203125 13.085938 -2.203125 C 11.046875 -2.203125 9.050781 -3.300781 8.03125 -5.015625 C 7.335938 -6.15625 7.09375 -7.132812 7.011719 -9.089844 L 12.351562 -9.089844 C 14.675781 -9.089844 16.46875 -9.335938 18.792969 -9.90625 Z M 13.613281 -11.25 C 13.613281 -11.25 11.535156 -11.128906 10.191406 -11.128906 C 9.375 -11.128906 10.394531 -11.128906 8.070312 -11.210938 L 6.765625 -11.25 C 6.765625 -15.285156 7.867188 -16.917969 10.230469 -16.917969 C 12.554688 -16.917969 13.613281 -15.285156 13.613281 -11.25 Z M 13.613281 -11.25 "/></g></g></g><g fill="#ab1404" fill-opacity="1"><g transform="translate(206.402597, 206.057381)"><g><path d="M 23.929688 0.121094 L 23.929688 -1.386719 L 22.582031 -1.46875 C 21.320312 -1.550781 21.113281 -1.875 21.113281 -4.078125 L 21.113281 -11.65625 C 21.113281 -14.796875 20.75 -16.347656 19.6875 -17.488281 C 18.628906 -18.585938 16.957031 -19.199219 14.960938 -19.199219 C 13.738281 -19.199219 12.757812 -18.953125 12.105469 -18.425781 L 8.84375 -15.898438 L 8.84375 -18.953125 L 8.601562 -19.199219 C 4.363281 -17.8125 3.21875 -17.570312 0.976562 -17.445312 L 0.976562 -15.980469 L 2.8125 -15.855469 C 3.75 -15.773438 3.871094 -15.410156 3.871094 -13.003906 L 3.871094 -4.078125 C 3.871094 -1.875 3.667969 -1.550781 2.40625 -1.46875 L 0.976562 -1.386719 L 0.976562 0.121094 C 2.730469 0.0390625 4.484375 0 6.238281 0 C 8.070312 0 9.90625 0.0390625 11.738281 0.121094 L 11.738281 -1.386719 L 10.3125 -1.46875 C 9.050781 -1.550781 8.84375 -1.875 8.84375 -4.078125 L 8.84375 -12.921875 C 8.84375 -14.347656 10.515625 -15.695312 12.308594 -15.695312 C 15 -15.695312 16.140625 -14.265625 16.140625 -11.007812 L 16.140625 0.121094 C 17.363281 0.0390625 18.585938 0 19.8125 0 C 21.195312 0 22.542969 0.0390625 23.929688 0.121094 Z M 23.929688 0.121094 "/></g></g></g><g fill="#ab1404" fill-opacity="1"><g transform="translate(231.307353, 206.057381)"><g><path d="M 13.207031 -2.445312 L 12.882812 -3.21875 C 12.023438 -2.8125 11.65625 -2.691406 11.007812 -2.691406 C 9.089844 -2.691406 8.480469 -3.34375 8.480469 -5.339844 L 8.480469 -15.042969 L 12.800781 -15.042969 L 13.125 -17.691406 C 11.578125 -17.527344 10.027344 -17.445312 8.480469 -17.445312 L 8.480469 -19.8125 C 8.480469 -21.972656 8.601562 -23.316406 8.96875 -25.355469 L 8.398438 -25.761719 C 6.765625 -24.988281 5.503906 -24.5 3.425781 -23.722656 C 3.546875 -21.5625 3.585938 -20.828125 3.585938 -19.972656 L 3.585938 -17.527344 L 0.898438 -15.773438 L 0.898438 -14.878906 L 3.503906 -15.042969 L 3.503906 -4.484375 C 3.503906 -0.855469 5.015625 0.691406 8.558594 0.691406 C 9.824219 0.691406 10.84375 0.40625 11.210938 -0.0390625 Z M 13.207031 -2.445312 "/></g></g></g><g fill="#ab1404" fill-opacity="1"><g transform="translate(244.880641, 206.057381)"><g><path d="M 12.148438 0.121094 L 12.148438 -1.386719 L 10.71875 -1.46875 C 9.457031 -1.550781 9.253906 -1.875 9.253906 -4.078125 L 9.253906 -18.953125 L 8.84375 -19.199219 C 8.84375 -19.199219 7.132812 -18.585938 5.992188 -18.300781 C 4.441406 -17.894531 3.710938 -17.773438 1.996094 -17.527344 L 1.386719 -17.445312 L 1.386719 -15.980469 L 3.21875 -15.855469 C 4.15625 -15.773438 4.28125 -15.410156 4.28125 -13.003906 L 4.28125 -4.078125 C 4.28125 -1.875 4.078125 -1.550781 2.8125 -1.46875 L 1.386719 -1.386719 L 1.386719 0.121094 C 3.140625 0.0390625 4.890625 0 6.644531 0 C 8.480469 0 10.3125 0.0390625 12.148438 0.121094 Z M 9.496094 -24.417969 C 9.496094 -25.882812 8.273438 -27.148438 6.808594 -27.148438 C 5.257812 -27.148438 4.035156 -25.925781 4.035156 -24.457031 C 4.035156 -22.910156 5.257812 -21.6875 6.765625 -21.6875 C 8.273438 -21.6875 9.496094 -22.910156 9.496094 -24.417969 Z M 9.496094 -24.417969 "/></g></g></g><g fill="#ab1404" fill-opacity="1"><g transform="translate(258.453929, 206.057381)"><g><path d="M 21.074219 -9.621094 C 21.074219 -15.816406 17.730469 -19.199219 11.699219 -19.199219 C 5.21875 -19.199219 1.628906 -15.613281 1.628906 -9.132812 C 1.628906 -2.851562 4.972656 0.691406 10.882812 0.691406 C 17.40625 0.691406 21.074219 -3.015625 21.074219 -9.621094 Z M 15.53125 -8.355469 C 15.53125 -3.382812 14.390625 -1.261719 11.617188 -1.261719 C 8.683594 -1.261719 7.175781 -4.238281 7.175781 -10.109375 C 7.175781 -15.042969 8.398438 -17.242188 11.210938 -17.242188 C 14.144531 -17.242188 15.53125 -14.347656 15.53125 -8.355469 Z M 15.53125 -8.355469 "/></g></g></g><g fill="#ab1404" fill-opacity="1"><g transform="translate(281.116827, 206.057381)"><g><path d="M 23.929688 0.121094 L 23.929688 -1.386719 L 22.582031 -1.46875 C 21.320312 -1.550781 21.113281 -1.875 21.113281 -4.078125 L 21.113281 -11.65625 C 21.113281 -14.796875 20.75 -16.347656 19.6875 -17.488281 C 18.628906 -18.585938 16.957031 -19.199219 14.960938 -19.199219 C 13.738281 -19.199219 12.757812 -18.953125 12.105469 -18.425781 L 8.84375 -15.898438 L 8.84375 -18.953125 L 8.601562 -19.199219 C 4.363281 -17.8125 3.21875 -17.570312 0.976562 -17.445312 L 0.976562 -15.980469 L 2.8125 -15.855469 C 3.75 -15.773438 3.871094 -15.410156 3.871094 -13.003906 L 3.871094 -4.078125 C 3.871094 -1.875 3.667969 -1.550781 2.40625 -1.46875 L 0.976562 -1.386719 L 0.976562 0.121094 C 2.730469 0.0390625 4.484375 0 6.238281 0 C 8.070312 0 9.90625 0.0390625 11.738281 0.121094 L 11.738281 -1.386719 L 10.3125 -1.46875 C 9.050781 -1.550781 8.84375 -1.875 8.84375 -4.078125 L 8.84375 -12.921875 C 8.84375 -14.347656 10.515625 -15.695312 12.308594 -15.695312 C 15 -15.695312 16.140625 -14.265625 16.140625 -11.007812 L 16.140625 0.121094 C 17.363281 0.0390625 18.585938 0 19.8125 0 C 21.195312 0 22.542969 0.0390625 23.929688 0.121094 Z M 23.929688 0.121094 "/></g></g></g><g fill="#ab1404" fill-opacity="1"><g transform="translate(83.868226, 246.085553)"><g><path d="M 24.214844 -21.644531 C 24.214844 -25.722656 19.972656 -27.757812 16.507812 -27.757812 C 13.898438 -27.757812 11.25 -27.636719 8.640625 -27.636719 C 6.277344 -27.636719 3.953125 -27.679688 1.589844 -27.757812 L 1.589844 -26.25 L 3.097656 -26.128906 C 4.933594 -25.964844 5.054688 -25.722656 5.054688 -22.132812 L 5.054688 -5.503906 C 5.054688 -1.875 5.015625 -1.792969 3.097656 -1.628906 L 1.589844 -1.507812 L 1.589844 0.121094 C 3.710938 0.0390625 5.828125 0 7.949219 0 C 10.191406 0 12.433594 0.0390625 14.675781 0.121094 L 14.675781 -1.507812 L 12.757812 -1.628906 C 10.882812 -1.753906 10.800781 -1.914062 10.800781 -5.503906 L 10.800781 -25.355469 C 11.414062 -25.597656 12.148438 -25.722656 13.246094 -25.722656 C 16.632812 -25.722656 18.34375 -23.886719 18.34375 -20.257812 C 18.34375 -17 16.710938 -14.878906 14.144531 -14.878906 L 12.675781 -14.878906 L 12.675781 -13.289062 C 13.453125 -13.167969 14.226562 -13.003906 15.042969 -13.003906 C 20.300781 -13.003906 24.214844 -16.710938 24.214844 -21.644531 Z M 24.214844 -21.644531 "/></g></g></g><g fill="#ab1404" fill-opacity="1"><g transform="translate(108.772972, 246.085553)"><g><path d="M 15.855469 -18.953125 C 15.449219 -19.117188 14.917969 -19.199219 14.347656 -19.199219 C 13.207031 -19.199219 12.433594 -18.710938 10.882812 -17.039062 L 9.089844 -15.082031 L 9.089844 -18.953125 L 8.683594 -19.199219 L 5.828125 -18.300781 C 4.523438 -17.894531 3.789062 -17.773438 1.222656 -17.445312 L 1.222656 -15.980469 L 3.058594 -15.855469 C 3.996094 -15.773438 4.117188 -15.410156 4.117188 -13.003906 L 4.117188 -4.078125 C 4.117188 -1.875 3.914062 -1.550781 2.648438 -1.46875 L 1.222656 -1.386719 L 1.222656 0.121094 C 2.976562 0.0390625 4.726562 0 6.480469 0 C 8.519531 0 10.597656 0.0390625 12.636719 0.121094 L 12.636719 -1.386719 L 11.046875 -1.46875 C 9.292969 -1.550781 9.089844 -1.792969 9.089844 -4.078125 L 9.089844 -12.148438 C 9.089844 -13.410156 10.761719 -14.757812 12.351562 -14.757812 C 13.371094 -14.757812 14.105469 -14.265625 14.675781 -13.289062 L 15.652344 -13.695312 Z M 15.855469 -18.953125 "/></g></g></g><g fill="#ab1404" fill-opacity="1"><g transform="translate(124.628856, 246.085553)"><g><path d="M 21.074219 -9.621094 C 21.074219 -15.816406 17.730469 -19.199219 11.699219 -19.199219 C 5.21875 -19.199219 1.628906 -15.613281 1.628906 -9.132812 C 1.628906 -2.851562 4.972656 0.691406 10.882812 0.691406 C 17.40625 0.691406 21.074219 -3.015625 21.074219 -9.621094 Z M 15.53125 -8.355469 C 15.53125 -3.382812 14.390625 -1.261719 11.617188 -1.261719 C 8.683594 -1.261719 7.175781 -4.238281 7.175781 -10.109375 C 7.175781 -15.042969 8.398438 -17.242188 11.210938 -17.242188 C 14.144531 -17.242188 15.53125 -14.347656 15.53125 -8.355469 Z M 15.53125 -8.355469 "/></g></g></g><g fill="#ab1404" fill-opacity="1"><g transform="translate(147.291763, 246.085553)"><g><path d="M 21.808594 1.710938 C 21.808594 -1.710938 19.890625 -3.34375 15.773438 -3.34375 L 14.796875 -3.34375 L 8.84375 -3.179688 C 7.582031 -3.140625 6.929688 -3.585938 6.929688 -4.402344 C 6.929688 -5.015625 7.296875 -5.503906 8.113281 -5.992188 C 8.84375 -5.953125 9.253906 -5.910156 9.742188 -5.910156 C 12.554688 -5.910156 15.164062 -6.847656 16.835938 -8.519531 C 18.097656 -9.78125 18.628906 -11.210938 18.628906 -13.246094 C 18.628906 -13.898438 18.585938 -14.390625 18.425781 -15.164062 L 21.5625 -15 L 21.765625 -17.609375 C 20.097656 -17.445312 19.320312 -17.40625 18.425781 -17.40625 C 18.097656 -17.40625 17.609375 -17.40625 16.957031 -17.445312 C 15.285156 -18.667969 13.371094 -19.199219 10.761719 -19.199219 C 5.542969 -19.199219 1.914062 -16.183594 1.914062 -11.902344 C 1.914062 -10.394531 2.445312 -9.050781 3.425781 -7.988281 C 4.199219 -7.175781 4.808594 -6.808594 6.238281 -6.316406 L 3.34375 -4.117188 C 2.933594 -3.832031 2.648438 -2.976562 2.648438 -2.160156 C 2.648438 -0.691406 3.382812 0.0390625 5.421875 0.570312 L 2.121094 2.527344 C 1.507812 2.894531 1.058594 3.953125 1.058594 5.054688 C 1.058594 8.601562 4.484375 10.84375 9.863281 10.84375 C 17 10.84375 21.808594 7.132812 21.808594 1.710938 Z M 13.613281 -12.1875 C 13.613281 -9.292969 12.515625 -7.785156 10.355469 -7.785156 C 8.234375 -7.785156 6.929688 -9.621094 6.929688 -12.675781 C 6.929688 -15.613281 8.070312 -17.160156 10.273438 -17.160156 C 12.433594 -17.160156 13.613281 -15.410156 13.613281 -12.1875 Z M 17.285156 3.871094 C 17.285156 6.683594 14.550781 8.804688 10.925781 8.804688 C 7.296875 8.804688 4.890625 7.09375 4.890625 4.566406 C 4.890625 3.058594 5.746094 1.628906 6.96875 1.058594 C 7.621094 0.734375 9.089844 0.613281 11.085938 0.613281 C 16.0625 0.613281 17.285156 1.261719 17.285156 3.871094 Z M 17.285156 3.871094 "/></g></g></g><g fill="#ab1404" fill-opacity="1"><g transform="translate(169.95467, 246.085553)"><g><path d="M 15.855469 -18.953125 C 15.449219 -19.117188 14.917969 -19.199219 14.347656 -19.199219 C 13.207031 -19.199219 12.433594 -18.710938 10.882812 -17.039062 L 9.089844 -15.082031 L 9.089844 -18.953125 L 8.683594 -19.199219 L 5.828125 -18.300781 C 4.523438 -17.894531 3.789062 -17.773438 1.222656 -17.445312 L 1.222656 -15.980469 L 3.058594 -15.855469 C 3.996094 -15.773438 4.117188 -15.410156 4.117188 -13.003906 L 4.117188 -4.078125 C 4.117188 -1.875 3.914062 -1.550781 2.648438 -1.46875 L 1.222656 -1.386719 L 1.222656 0.121094 C 2.976562 0.0390625 4.726562 0 6.480469 0 C 8.519531 0 10.597656 0.0390625 12.636719 0.121094 L 12.636719 -1.386719 L 11.046875 -1.46875 C 9.292969 -1.550781 9.089844 -1.792969 9.089844 -4.078125 L 9.089844 -12.148438 C 9.089844 -13.410156 10.761719 -14.757812 12.351562 -14.757812 C 13.371094 -14.757812 14.105469 -14.265625 14.675781 -13.289062 L 15.652344 -13.695312 Z M 15.855469 -18.953125 "/></g></g></g><g fill="#ab1404" fill-opacity="1"><g transform="translate(185.810554, 246.085553)"><g><path d="M 19.484375 0.121094 L 19.484375 -1.386719 L 18.261719 -1.507812 C 17.324219 -1.589844 17.121094 -2.078125 17.121094 -3.996094 L 17.121094 -13.453125 C 17.121094 -17.039062 14.714844 -19.199219 10.597656 -19.199219 C 8.84375 -19.199219 7.253906 -18.75 5.707031 -17.8125 L 3.546875 -16.507812 L 3.546875 -13.695312 L 4.769531 -13.410156 L 5.667969 -15.449219 C 5.789062 -15.734375 6.929688 -16.019531 8.03125 -16.019531 C 10.761719 -16.019531 12.066406 -14.550781 12.1875 -11.210938 L 8.601562 -10.476562 C 3.464844 -9.417969 1.628906 -7.828125 1.628906 -4.363281 C 1.628906 -1.058594 3.300781 0.691406 6.398438 0.691406 C 7.335938 0.691406 7.988281 0.53125 8.398438 0.203125 L 12.1875 -2.730469 L 11.984375 -0.203125 L 12.1875 0.121094 C 13.410156 0.0390625 14.675781 0 15.898438 0 C 17.078125 0 18.300781 0.0390625 19.484375 0.121094 Z M 12.1875 -4.6875 C 11.371094 -3.628906 9.90625 -2.851562 8.683594 -2.851562 C 7.378906 -2.851562 6.605469 -3.832031 6.605469 -5.421875 C 6.605469 -7.417969 7.460938 -8.234375 10.355469 -9.007812 L 12.1875 -9.496094 Z M 12.1875 -4.6875 "/></g></g></g><g fill="#ab1404" fill-opacity="1"><g transform="translate(206.190864, 246.085553)"><g><path d="M 35.21875 0.121094 L 35.21875 -1.386719 L 33.875 -1.46875 C 32.609375 -1.550781 32.40625 -1.875 32.40625 -4.078125 L 32.40625 -11.65625 C 32.40625 -17.285156 30.9375 -19.199219 26.578125 -19.199219 C 25.230469 -19.199219 24.335938 -18.953125 23.640625 -18.425781 L 20.382812 -15.898438 C 19.445312 -18.222656 17.8125 -19.199219 15 -19.199219 C 13.695312 -19.199219 12.800781 -18.953125 12.105469 -18.425781 L 8.84375 -15.898438 L 8.84375 -18.953125 L 8.601562 -19.199219 C 4.363281 -17.8125 3.21875 -17.570312 0.976562 -17.445312 L 0.976562 -15.980469 L 2.8125 -15.855469 C 3.75 -15.773438 3.871094 -15.410156 3.871094 -13.003906 L 3.871094 -4.078125 C 3.871094 -1.875 3.667969 -1.550781 2.40625 -1.46875 L 0.976562 -1.386719 L 0.976562 0.121094 C 2.730469 0.0390625 4.484375 0 6.238281 0 C 7.949219 0 9.703125 0.0390625 11.414062 0.121094 L 11.414062 -1.386719 L 10.3125 -1.46875 C 9.007812 -1.550781 8.84375 -1.875 8.84375 -4.078125 L 8.84375 -12.921875 C 8.84375 -14.265625 10.515625 -15.695312 12.148438 -15.695312 C 14.511719 -15.695312 15.652344 -14.144531 15.652344 -10.964844 L 15.652344 -4.078125 C 15.652344 -1.875 15.488281 -1.550781 14.183594 -1.46875 L 12.921875 -1.386719 L 12.921875 0.121094 C 14.675781 0.0390625 16.425781 0 18.179688 0 C 19.972656 0 21.726562 0.0390625 23.519531 0.121094 L 23.519531 -1.386719 L 22.09375 -1.46875 C 20.828125 -1.550781 20.625 -1.875 20.625 -4.078125 L 20.625 -12.921875 C 20.625 -14.265625 22.296875 -15.695312 23.929688 -15.695312 C 26.292969 -15.695312 27.433594 -14.144531 27.433594 -10.964844 L 27.433594 0.121094 C 28.695312 0.0390625 29.960938 0 31.222656 0 C 32.570312 0 33.875 0.0390625 35.21875 0.121094 Z M 35.21875 0.121094 "/></g></g></g><g fill="#ab1404" fill-opacity="1"><g transform="translate(242.427068, 246.085553)"><g/></g></g><g fill="#ab1404" fill-opacity="1"><g transform="translate(252.617228, 246.085553)"><g><path d="M 21.074219 -9.621094 C 21.074219 -15.816406 17.730469 -19.199219 11.699219 -19.199219 C 5.21875 -19.199219 1.628906 -15.613281 1.628906 -9.132812 C 1.628906 -2.851562 4.972656 0.691406 10.882812 0.691406 C 17.40625 0.691406 21.074219 -3.015625 21.074219 -9.621094 Z M 15.53125 -8.355469 C 15.53125 -3.382812 14.390625 -1.261719 11.617188 -1.261719 C 8.683594 -1.261719 7.175781 -4.238281 7.175781 -10.109375 C 7.175781 -15.042969 8.398438 -17.242188 11.210938 -17.242188 C 14.144531 -17.242188 15.53125 -14.347656 15.53125 -8.355469 Z M 15.53125 -8.355469 "/></g></g></g><g fill="#ab1404" fill-opacity="1"><g transform="translate(275.280145, 246.085553)"><g><path d="M 15.53125 -25.152344 L 15.53125 -29.105469 C 14.835938 -29.269531 14.429688 -29.347656 13.820312 -29.347656 C 12.515625 -29.347656 11.578125 -28.941406 10.027344 -27.636719 L 7.011719 -25.109375 C 5.054688 -23.480469 4.769531 -22.785156 4.769531 -19.527344 L 4.769531 -17.773438 C 3.710938 -17.039062 2.894531 -16.589844 1.550781 -15.9375 L 1.550781 -14.960938 L 4.769531 -15.164062 L 4.769531 -4.078125 C 4.769531 -1.835938 4.566406 -1.550781 3.058594 -1.46875 L 1.386719 -1.386719 L 1.386719 0.121094 C 3.300781 0.0390625 5.175781 0 7.09375 0 C 9.253906 0 11.453125 0.0390625 13.613281 0.121094 L 13.613281 -1.386719 L 11.78125 -1.46875 C 10.71875 -1.507812 9.988281 -1.792969 9.863281 -2.203125 C 9.78125 -2.566406 9.742188 -3.097656 9.742188 -4.078125 L 9.742188 -15.164062 L 14.796875 -15.164062 L 15.246094 -17.527344 L 15.082031 -17.855469 C 13.289062 -17.730469 11.535156 -17.691406 9.742188 -17.691406 L 9.742188 -22.09375 C 9.742188 -24.988281 10.273438 -25.84375 12.148438 -25.84375 C 13.003906 -25.84375 13.613281 -25.640625 14.878906 -24.867188 Z M 15.53125 -25.152344 "/></g></g></g><g fill="#ab1404" fill-opacity="1"><g transform="translate(104.054039, 288.406583)"><g><path d="M 32.527344 -26.25 L 32.527344 -27.757812 C 30.980469 -27.679688 29.429688 -27.636719 27.882812 -27.636719 C 26.332031 -27.636719 24.742188 -27.679688 23.195312 -27.757812 L 23.195312 -26.25 L 24.703125 -26.128906 C 26.535156 -25.964844 26.660156 -25.722656 26.660156 -22.132812 L 26.660156 -7.5 L 13.941406 -22.339844 C 13.085938 -23.316406 12.351562 -24.292969 9.742188 -27.757812 C 8.601562 -27.679688 7.460938 -27.636719 6.316406 -27.636719 C 4.6875 -27.636719 3.058594 -27.679688 1.425781 -27.757812 L 1.425781 -26.25 L 2.933594 -26.128906 C 4.769531 -25.964844 4.890625 -25.722656 4.890625 -22.132812 L 4.890625 -5.503906 C 4.890625 -1.914062 4.769531 -1.671875 2.933594 -1.507812 L 1.425781 -1.386719 L 1.425781 0.121094 C 2.976562 0.0390625 4.566406 0 6.113281 0 C 7.664062 0 9.210938 0.0390625 10.761719 0.121094 L 10.761719 -1.386719 L 9.253906 -1.507812 C 7.417969 -1.671875 7.296875 -1.875 7.296875 -5.503906 L 7.296875 -21.523438 L 20.585938 -5.542969 L 25.558594 0.121094 L 28.902344 0.652344 L 29.1875 0.488281 L 29.0625 -3.628906 L 29.0625 -22.132812 C 29.0625 -25.722656 29.1875 -25.964844 31.019531 -26.128906 Z M 32.527344 -26.25 "/></g></g></g><g fill="#ab1404" fill-opacity="1"><g transform="translate(138.007637, 288.406583)"><g><path d="M 21.074219 -9.621094 C 21.074219 -15.816406 17.730469 -19.199219 11.699219 -19.199219 C 5.21875 -19.199219 1.628906 -15.613281 1.628906 -9.132812 C 1.628906 -2.851562 4.972656 0.691406 10.882812 0.691406 C 17.40625 0.691406 21.074219 -3.015625 21.074219 -9.621094 Z M 15.53125 -8.355469 C 15.53125 -3.382812 14.390625 -1.261719 11.617188 -1.261719 C 8.683594 -1.261719 7.175781 -4.238281 7.175781 -10.109375 C 7.175781 -15.042969 8.398438 -17.242188 11.210938 -17.242188 C 14.144531 -17.242188 15.53125 -14.347656 15.53125 -8.355469 Z M 15.53125 -8.355469 "/></g></g></g><g fill="#ab1404" fill-opacity="1"><g transform="translate(160.670544, 288.406583)"><g><path d="M 15.855469 -18.953125 C 15.449219 -19.117188 14.917969 -19.199219 14.347656 -19.199219 C 13.207031 -19.199219 12.433594 -18.710938 10.882812 -17.039062 L 9.089844 -15.082031 L 9.089844 -18.953125 L 8.683594 -19.199219 L 5.828125 -18.300781 C 4.523438 -17.894531 3.789062 -17.773438 1.222656 -17.445312 L 1.222656 -15.980469 L 3.058594 -15.855469 C 3.996094 -15.773438 4.117188 -15.410156 4.117188 -13.003906 L 4.117188 -4.078125 C 4.117188 -1.875 3.914062 -1.550781 2.648438 -1.46875 L 1.222656 -1.386719 L 1.222656 0.121094 C 2.976562 0.0390625 4.726562 0 6.480469 0 C 8.519531 0 10.597656 0.0390625 12.636719 0.121094 L 12.636719 -1.386719 L 11.046875 -1.46875 C 9.292969 -1.550781 9.089844 -1.792969 9.089844 -4.078125 L 9.089844 -12.148438 C 9.089844 -13.410156 10.761719 -14.757812 12.351562 -14.757812 C 13.371094 -14.757812 14.105469 -14.265625 14.675781 -13.289062 L 15.652344 -13.695312 Z M 15.855469 -18.953125 "/></g></g></g><g fill="#ab1404" fill-opacity="1"><g transform="translate(176.526428, 288.406583)"><g><path d="M 13.207031 -2.445312 L 12.882812 -3.21875 C 12.023438 -2.8125 11.65625 -2.691406 11.007812 -2.691406 C 9.089844 -2.691406 8.480469 -3.34375 8.480469 -5.339844 L 8.480469 -15.042969 L 12.800781 -15.042969 L 13.125 -17.691406 C 11.578125 -17.527344 10.027344 -17.445312 8.480469 -17.445312 L 8.480469 -19.8125 C 8.480469 -21.972656 8.601562 -23.316406 8.96875 -25.355469 L 8.398438 -25.761719 C 6.765625 -24.988281 5.503906 -24.5 3.425781 -23.722656 C 3.546875 -21.5625 3.585938 -20.828125 3.585938 -19.972656 L 3.585938 -17.527344 L 0.898438 -15.773438 L 0.898438 -14.878906 L 3.503906 -15.042969 L 3.503906 -4.484375 C 3.503906 -0.855469 5.015625 0.691406 8.558594 0.691406 C 9.824219 0.691406 10.84375 0.40625 11.210938 -0.0390625 Z M 13.207031 -2.445312 "/></g></g></g><g fill="#ab1404" fill-opacity="1"><g transform="translate(190.099716, 288.406583)"><g><path d="M 23.929688 0.121094 L 23.929688 -1.386719 L 22.582031 -1.46875 C 21.320312 -1.550781 21.113281 -1.875 21.113281 -4.078125 L 21.113281 -11.65625 C 21.113281 -14.796875 20.75 -16.347656 19.6875 -17.488281 C 18.628906 -18.585938 16.957031 -19.199219 14.960938 -19.199219 C 13.738281 -19.199219 12.757812 -18.953125 12.105469 -18.425781 L 8.84375 -15.898438 L 8.84375 -29.105469 L 8.519531 -29.347656 L 5.585938 -28.453125 C 4.523438 -28.125 3.179688 -27.882812 0.976562 -27.597656 L 0.976562 -26.128906 L 2.8125 -26.007812 C 3.75 -25.925781 3.871094 -25.558594 3.871094 -23.152344 L 3.871094 -4.078125 C 3.871094 -1.875 3.667969 -1.550781 2.40625 -1.46875 L 0.976562 -1.386719 L 0.976562 0.121094 C 2.730469 0.0390625 4.484375 0 6.238281 0 C 8.070312 0 9.90625 0.0390625 11.738281 0.121094 L 11.738281 -1.386719 L 10.3125 -1.46875 C 9.050781 -1.550781 8.84375 -1.875 8.84375 -4.078125 L 8.84375 -12.921875 C 8.84375 -14.347656 10.515625 -15.695312 12.308594 -15.695312 C 15 -15.695312 16.140625 -14.265625 16.140625 -10.964844 L 16.140625 0.121094 C 17.363281 0.0390625 18.585938 0 19.8125 0 C 21.195312 0 22.542969 0.0390625 23.929688 0.121094 Z M 23.929688 0.121094 "/></g></g></g><g fill="#ab1404" fill-opacity="1"><g transform="translate(215.004462, 288.406583)"><g><path d="M 18.792969 -9.90625 L 18.792969 -12.023438 C 18.792969 -16.386719 15.773438 -19.199219 11.046875 -19.199219 C 9.660156 -19.199219 8.601562 -18.914062 7.5 -18.261719 L 5.585938 -17.121094 C 2.894531 -15.53125 1.710938 -13.125 1.710938 -9.210938 C 1.710938 -2.730469 4.933594 0.691406 11.046875 0.691406 C 13.410156 0.691406 14.835938 0.285156 17.488281 -1.058594 L 18.382812 -3.015625 L 17.894531 -3.628906 C 15.980469 -2.566406 14.757812 -2.203125 13.085938 -2.203125 C 11.046875 -2.203125 9.050781 -3.300781 8.03125 -5.015625 C 7.335938 -6.15625 7.09375 -7.132812 7.011719 -9.089844 L 12.351562 -9.089844 C 14.675781 -9.089844 16.46875 -9.335938 18.792969 -9.90625 Z M 13.613281 -11.25 C 13.613281 -11.25 11.535156 -11.128906 10.191406 -11.128906 C 9.375 -11.128906 10.394531 -11.128906 8.070312 -11.210938 L 6.765625 -11.25 C 6.765625 -15.285156 7.867188 -16.917969 10.230469 -16.917969 C 12.554688 -16.917969 13.613281 -15.285156 13.613281 -11.25 Z M 13.613281 -11.25 "/></g></g></g><g fill="#ab1404" fill-opacity="1"><g transform="translate(235.384773, 288.406583)"><g><path d="M 15.855469 -18.953125 C 15.449219 -19.117188 14.917969 -19.199219 14.347656 -19.199219 C 13.207031 -19.199219 12.433594 -18.710938 10.882812 -17.039062 L 9.089844 -15.082031 L 9.089844 -18.953125 L 8.683594 -19.199219 L 5.828125 -18.300781 C 4.523438 -17.894531 3.789062 -17.773438 1.222656 -17.445312 L 1.222656 -15.980469 L 3.058594 -15.855469 C 3.996094 -15.773438 4.117188 -15.410156 4.117188 -13.003906 L 4.117188 -4.078125 C 4.117188 -1.875 3.914062 -1.550781 2.648438 -1.46875 L 1.222656 -1.386719 L 1.222656 0.121094 C 2.976562 0.0390625 4.726562 0 6.480469 0 C 8.519531 0 10.597656 0.0390625 12.636719 0.121094 L 12.636719 -1.386719 L 11.046875 -1.46875 C 9.292969 -1.550781 9.089844 -1.792969 9.089844 -4.078125 L 9.089844 -12.148438 C 9.089844 -13.410156 10.761719 -14.757812 12.351562 -14.757812 C 13.371094 -14.757812 14.105469 -14.265625 14.675781 -13.289062 L 15.652344 -13.695312 Z M 15.855469 -18.953125 "/></g></g></g><g fill="#ab1404" fill-opacity="1"><g transform="translate(251.240657, 288.406583)"><g><path d="M 23.929688 0.121094 L 23.929688 -1.386719 L 22.582031 -1.46875 C 21.320312 -1.550781 21.113281 -1.875 21.113281 -4.078125 L 21.113281 -11.65625 C 21.113281 -14.796875 20.75 -16.347656 19.6875 -17.488281 C 18.628906 -18.585938 16.957031 -19.199219 14.960938 -19.199219 C 13.738281 -19.199219 12.757812 -18.953125 12.105469 -18.425781 L 8.84375 -15.898438 L 8.84375 -18.953125 L 8.601562 -19.199219 C 4.363281 -17.8125 3.21875 -17.570312 0.976562 -17.445312 L 0.976562 -15.980469 L 2.8125 -15.855469 C 3.75 -15.773438 3.871094 -15.410156 3.871094 -13.003906 L 3.871094 -4.078125 C 3.871094 -1.875 3.667969 -1.550781 2.40625 -1.46875 L 0.976562 -1.386719 L 0.976562 0.121094 C 2.730469 0.0390625 4.484375 0 6.238281 0 C 8.070312 0 9.90625 0.0390625 11.738281 0.121094 L 11.738281 -1.386719 L 10.3125 -1.46875 C 9.050781 -1.550781 8.84375 -1.875 8.84375 -4.078125 L 8.84375 -12.921875 C 8.84375 -14.347656 10.515625 -15.695312 12.308594 -15.695312 C 15 -15.695312 16.140625 -14.265625 16.140625 -11.007812 L 16.140625 0.121094 C 17.363281 0.0390625 18.585938 0 19.8125 0 C 21.195312 0 22.542969 0.0390625 23.929688 0.121094 Z M 23.929688 0.121094 "/></g></g></g><g fill="#ab1404" fill-opacity="1"><g transform="translate(276.144651, 288.406583)"><g/></g></g><g fill="#ab1404" fill-opacity="1"><g transform="translate(132.430624, 324.842315)"><g><path d="M 32.527344 -26.25 L 32.527344 -27.757812 C 30.980469 -27.679688 29.429688 -27.636719 27.882812 -27.636719 C 26.332031 -27.636719 24.742188 -27.679688 23.195312 -27.757812 L 23.195312 -26.25 L 24.703125 -26.128906 C 26.535156 -25.964844 26.660156 -25.722656 26.660156 -22.132812 L 26.660156 -7.5 L 13.941406 -22.339844 C 13.085938 -23.316406 12.351562 -24.292969 9.742188 -27.757812 C 8.601562 -27.679688 7.460938 -27.636719 6.316406 -27.636719 C 4.6875 -27.636719 3.058594 -27.679688 1.425781 -27.757812 L 1.425781 -26.25 L 2.933594 -26.128906 C 4.769531 -25.964844 4.890625 -25.722656 4.890625 -22.132812 L 4.890625 -5.503906 C 4.890625 -1.914062 4.769531 -1.671875 2.933594 -1.507812 L 1.425781 -1.386719 L 1.425781 0.121094 C 2.976562 0.0390625 4.566406 0 6.113281 0 C 7.664062 0 9.210938 0.0390625 10.761719 0.121094 L 10.761719 -1.386719 L 9.253906 -1.507812 C 7.417969 -1.671875 7.296875 -1.875 7.296875 -5.503906 L 7.296875 -21.523438 L 20.585938 -5.542969 L 25.558594 0.121094 L 28.902344 0.652344 L 29.1875 0.488281 L 29.0625 -3.628906 L 29.0625 -22.132812 C 29.0625 -25.722656 29.1875 -25.964844 31.019531 -26.128906 Z M 32.527344 -26.25 "/></g></g></g><g fill="#ab1404" fill-opacity="1"><g transform="translate(166.384223, 324.842315)"><g><path d="M 18.792969 -9.90625 L 18.792969 -12.023438 C 18.792969 -16.386719 15.773438 -19.199219 11.046875 -19.199219 C 9.660156 -19.199219 8.601562 -18.914062 7.5 -18.261719 L 5.585938 -17.121094 C 2.894531 -15.53125 1.710938 -13.125 1.710938 -9.210938 C 1.710938 -2.730469 4.933594 0.691406 11.046875 0.691406 C 13.410156 0.691406 14.835938 0.285156 17.488281 -1.058594 L 18.382812 -3.015625 L 17.894531 -3.628906 C 15.980469 -2.566406 14.757812 -2.203125 13.085938 -2.203125 C 11.046875 -2.203125 9.050781 -3.300781 8.03125 -5.015625 C 7.335938 -6.15625 7.09375 -7.132812 7.011719 -9.089844 L 12.351562 -9.089844 C 14.675781 -9.089844 16.46875 -9.335938 18.792969 -9.90625 Z M 13.613281 -11.25 C 13.613281 -11.25 11.535156 -11.128906 10.191406 -11.128906 C 9.375 -11.128906 10.394531 -11.128906 8.070312 -11.210938 L 6.765625 -11.25 C 6.765625 -15.285156 7.867188 -16.917969 10.230469 -16.917969 C 12.554688 -16.917969 13.613281 -15.285156 13.613281 -11.25 Z M 13.613281 -11.25 "/></g></g></g><g fill="#ab1404" fill-opacity="1"><g transform="translate(186.764533, 324.842315)"><g><path d="M 22.214844 -17.160156 L 22.214844 -18.710938 C 20.910156 -18.628906 19.605469 -18.585938 18.300781 -18.585938 C 17 -18.585938 15.652344 -18.628906 14.347656 -18.710938 L 14.347656 -17.160156 L 15.898438 -17.078125 C 16.46875 -17.039062 16.835938 -16.753906 16.835938 -16.386719 C 16.835938 -15.898438 16.710938 -15.328125 16.46875 -14.714844 L 13.980469 -8.558594 L 12.554688 -5.300781 L 8.96875 -14.308594 C 8.558594 -15.328125 8.398438 -15.9375 8.398438 -16.386719 C 8.398438 -16.792969 8.722656 -17.039062 9.335938 -17.078125 L 11.007812 -17.160156 L 11.007812 -18.710938 C 9.253906 -18.628906 7.5 -18.585938 5.746094 -18.585938 C 3.996094 -18.585938 2.203125 -18.628906 0.449219 -18.710938 L 0.449219 -17.160156 L 1.46875 -17.078125 C 2.160156 -17.039062 2.730469 -16.304688 3.425781 -14.550781 L 9.253906 0.121094 L 12.757812 0.121094 C 13.410156 -1.710938 13.820312 -2.730469 14.308594 -3.832031 L 19.527344 -15.570312 C 19.933594 -16.46875 20.300781 -16.835938 20.992188 -16.957031 Z M 22.214844 -17.160156 "/></g></g></g><g fill="#ab1404" fill-opacity="1"><g transform="translate(209.42744, 324.842315)"><g><path d="M 19.484375 0.121094 L 19.484375 -1.386719 L 18.261719 -1.507812 C 17.324219 -1.589844 17.121094 -2.078125 17.121094 -3.996094 L 17.121094 -13.453125 C 17.121094 -17.039062 14.714844 -19.199219 10.597656 -19.199219 C 8.84375 -19.199219 7.253906 -18.75 5.707031 -17.8125 L 3.546875 -16.507812 L 3.546875 -13.695312 L 4.769531 -13.410156 L 5.667969 -15.449219 C 5.789062 -15.734375 6.929688 -16.019531 8.03125 -16.019531 C 10.761719 -16.019531 12.066406 -14.550781 12.1875 -11.210938 L 8.601562 -10.476562 C 3.464844 -9.417969 1.628906 -7.828125 1.628906 -4.363281 C 1.628906 -1.058594 3.300781 0.691406 6.398438 0.691406 C 7.335938 0.691406 7.988281 0.53125 8.398438 0.203125 L 12.1875 -2.730469 L 11.984375 -0.203125 L 12.1875 0.121094 C 13.410156 0.0390625 14.675781 0 15.898438 0 C 17.078125 0 18.300781 0.0390625 19.484375 0.121094 Z M 12.1875 -4.6875 C 11.371094 -3.628906 9.90625 -2.851562 8.683594 -2.851562 C 7.378906 -2.851562 6.605469 -3.832031 6.605469 -5.421875 C 6.605469 -7.417969 7.460938 -8.234375 10.355469 -9.007812 L 12.1875 -9.496094 Z M 12.1875 -4.6875 "/></g></g></g><g fill="#ab1404" fill-opacity="1"><g transform="translate(229.807751, 324.842315)"><g><path d="M 23.519531 0.121094 L 23.519531 -1.386719 L 22.175781 -1.46875 C 20.910156 -1.550781 20.707031 -1.875 20.707031 -4.078125 L 20.707031 -29.105469 L 20.382812 -29.347656 L 17.445312 -28.453125 C 16.265625 -28.085938 14.878906 -27.839844 12.515625 -27.597656 L 12.515625 -26.128906 L 14.675781 -26.007812 C 15.570312 -25.964844 15.734375 -25.558594 15.734375 -23.152344 L 15.734375 -18.179688 L 14.917969 -18.507812 C 13.777344 -18.953125 12.675781 -19.199219 11.65625 -19.199219 C 10.355469 -19.199219 9.171875 -18.832031 8.070312 -18.140625 L 5.136719 -16.222656 C 2.8125 -14.714844 1.710938 -12.351562 1.710938 -8.84375 C 1.710938 -3.015625 4.726562 0.691406 9.496094 0.691406 C 10.433594 0.691406 11.085938 0.53125 11.496094 0.203125 L 15.734375 -3.261719 L 15.53125 -0.203125 L 15.734375 0.121094 C 16.957031 0.0390625 18.179688 0 19.402344 0 C 20.789062 0 22.132812 0.0390625 23.519531 0.121094 Z M 15.734375 -6.523438 C 15.734375 -4.6875 13.820312 -3.179688 11.578125 -3.179688 C 8.683594 -3.179688 6.847656 -5.992188 6.847656 -10.394531 C 6.847656 -14.511719 8.273438 -16.589844 11.167969 -16.589844 C 12.921875 -16.589844 14.390625 -15.773438 15.734375 -14.023438 Z M 15.734375 -6.523438 "/></g></g></g><g fill="#ab1404" fill-opacity="1"><g transform="translate(254.712497, 324.842315)"><g><path d="M 19.484375 0.121094 L 19.484375 -1.386719 L 18.261719 -1.507812 C 17.324219 -1.589844 17.121094 -2.078125 17.121094 -3.996094 L 17.121094 -13.453125 C 17.121094 -17.039062 14.714844 -19.199219 10.597656 -19.199219 C 8.84375 -19.199219 7.253906 -18.75 5.707031 -17.8125 L 3.546875 -16.507812 L 3.546875 -13.695312 L 4.769531 -13.410156 L 5.667969 -15.449219 C 5.789062 -15.734375 6.929688 -16.019531 8.03125 -16.019531 C 10.761719 -16.019531 12.066406 -14.550781 12.1875 -11.210938 L 8.601562 -10.476562 C 3.464844 -9.417969 1.628906 -7.828125 1.628906 -4.363281 C 1.628906 -1.058594 3.300781 0.691406 6.398438 0.691406 C 7.335938 0.691406 7.988281 0.53125 8.398438 0.203125 L 12.1875 -2.730469 L 11.984375 -0.203125 L 12.1875 0.121094 C 13.410156 0.0390625 14.675781 0 15.898438 0 C 17.078125 0 18.300781 0.0390625 19.484375 0.121094 Z M 12.1875 -4.6875 C 11.371094 -3.628906 9.90625 -2.851562 8.683594 -2.851562 C 7.378906 -2.851562 6.605469 -3.832031 6.605469 -5.421875 C 6.605469 -7.417969 7.460938 -8.234375 10.355469 -9.007812 L 12.1875 -9.496094 Z M 12.1875 -4.6875 "/></g></g></g></svg>